<svg width="272" height="278" version="1.1" xmlns="http://www.w3.org/2000/svg" desc="Created with imagetracer.js version 1.2.6" ><path fill="rgb(0,0,0)" stroke="rgb(0,0,0)" stroke-width="1" opacity="0" d="M 0 0 L 272 0 L 272 278 L 0 278 L 0 0 Z M 127 8 L 126 9 L 118 9 L 108 11 L 91 17 L 76 25 L 60 37 Q 44 51 35 69 L 43 71 Q 47 61 54 54 Q 66 40 82 30 L 105 20 L 124 16 L 149 16 L 168 20 Q 190 27 206 41 Q 221 54 231 72 L 237 69 Q 230 55 220 45 Q 203 25 177 15 L 155 9 L 127 8 Z M 129 38 L 115 45 Q 108 50 105 59 L 103 69 L 104 79 L 109 89 Q 116 99 132 102 L 145 101 L 156 95 Q 164 88 167 77 L 167 64 L 162 52 Q 153 37 129 38 Z M 241 75 L 234 78 L 229 83 L 226 93 L 228 98 L 219 103 L 189 114 L 168 118 L 164 120 L 149 121 L 148 122 L 121 122 L 120 121 L 106 120 Q 103 117 97 118 L 64 108 L 47 101 L 44 99 L 46 96 Q 47 88 44 84 L 35 76 Q 25 74 21 78 Q 15 81 13 89 Q 12 97 15 101 L 22 107 L 29 109 Q 35 109 38 106 L 41 106 L 69 118 L 96 126 L 115 128 L 116 129 L 127 129 L 128 131 L 83 199 Q 84 201 82 200 L 80 200 Q 71 199 68 202 Q 61 206 59 216 L 61 225 L 64 229 L 72 233 L 81 233 L 88 229 L 92 222 L 93 217 L 92 212 L 88 206 L 135 134 L 182 205 L 178 214 Q 177 223 181 227 L 191 233 Q 200 234 205 230 Q 210 227 211 220 Q 212 209 207 206 L 199 200 L 191 200 L 190 201 L 142 132 L 142 129 L 154 129 L 162 127 L 168 127 L 192 121 L 212 114 L 232 105 L 239 108 Q 249 110 254 105 L 259 98 Q 261 87 257 83 Q 253 75 241 75 Z M 22 114 L 21 117 L 22 140 L 26 158 Q 34 181 49 199 L 55 204 L 57 204 L 60 200 Q 44 183 35 161 L 29 136 L 29 117 L 22 114 Z M 245 115 L 243 117 L 242 141 L 238 158 L 225 184 L 211 200 L 213 203 L 217 205 L 234 184 L 244 164 L 249 146 L 250 127 L 251 126 Q 252 121 250 120 Q 252 112 245 115 Z M 98 224 L 96 231 L 112 236 L 126 237 L 127 238 L 155 237 L 165 235 L 176 231 L 172 224 L 158 229 L 139 230 L 138 231 L 115 229 L 98 224 Z " /><path fill="rgb(12,9,11)" stroke="rgb(12,9,11)" stroke-width="1" opacity="1" d="M 124.5 9 L 136 9.5 L 124.5 10 L 124.5 9 Z " /><path fill="rgb(12,9,11)" stroke="rgb(12,9,11)" stroke-width="1" opacity="1" d="M 138.5 9 L 148 9.5 L 138.5 10 L 138.5 9 Z " /><path fill="rgb(12,9,11)" stroke="rgb(12,9,11)" stroke-width="1" opacity="1" d="M 117.5 10 L 122 10.5 L 117.5 11 L 117.5 10 Z " /><path fill="rgb(12,9,11)" stroke="rgb(12,9,11)" stroke-width="1" opacity="1" d="M 150.5 10 L 155 10.5 L 150.5 11 L 150.5 10 Z " /><path fill="rgb(12,9,11)" stroke="rgb(12,9,11)" stroke-width="1" opacity="1" d="M 111.5 11 Q 115.9 9.5 115 12.5 L 113.5 12 L 108.5 14 L 106.5 13 L 104.5 14 L 104.5 13 L 111.5 11 Z " /><path fill="rgb(12,9,11)" stroke="rgb(12,9,11)" stroke-width="1" opacity="1" d="M 145.5 11 L 148 11.5 L 141.5 13 L 141.5 12 L 145.5 11 Z " /><path fill="rgb(12,9,11)" stroke="rgb(12,9,11)" stroke-width="1" opacity="1" d="M 156.5 11 L 160.5 11 L 171 14.5 L 169 15.5 L 172 16 L 171 20 L 173.5 21 L 175.5 18 L 179 20.5 L 177 21 L 176.5 23 L 175.5 20 L 175 22 L 169.5 19 L 167.5 20 L 167.5 19 Q 170.1 19.7 169 17 L 166 16.5 L 167.5 14 L 164.5 15 L 164.5 13 L 156.5 12 L 156.5 11 Z " /><path fill="rgb(12,9,11)" stroke="rgb(12,9,11)" stroke-width="1" opacity="1" d="M 101.5 14 L 103 14.5 L 101 15.5 L 104 17.5 L 103.5 19 L 105 19.5 L 102.5 20 Q 99.5 19.5 100 15.5 L 101.5 14 Z " /><path fill="rgb(12,9,11)" stroke="rgb(12,9,11)" stroke-width="1" opacity="1" d="M 128.5 14 L 143 14.5 L 128.5 15 L 128.5 14 Z " /><path fill="rgb(12,9,11)" stroke="rgb(12,9,11)" stroke-width="1" opacity="1" d="M 106.5 15 L 108 15.5 L 105.5 17 L 106.5 15 Z " /><path fill="rgb(12,9,11)" stroke="rgb(12,9,11)" stroke-width="1" opacity="1" d="M 120.5 15 L 126 15.5 L 120.5 16 L 120.5 15 Z " /><path fill="rgb(12,9,11)" stroke="rgb(12,9,11)" stroke-width="1" opacity="1" d="M 146.5 15 L 152 15.5 L 146.5 16 L 146.5 15 Z " /><path fill="rgb(12,9,11)" stroke="rgb(12,9,11)" stroke-width="1" opacity="1" d="M 95.5 16 L 94.5 18 L 92 17.5 L 95.5 16 Z " /><path fill="rgb(12,9,11)" stroke="rgb(12,9,11)" stroke-width="1" opacity="1" d="M 112.5 16 L 118 16.5 L 110.5 18 L 110.5 17 L 112.5 16 Z " /><path fill="rgb(12,9,11)" stroke="rgb(12,9,11)" stroke-width="1" opacity="1" d="M 154.5 16 L 158 16.5 L 154.5 17 L 154.5 16 Z " /><path fill="rgb(12,9,11)" stroke="rgb(12,9,11)" stroke-width="1" opacity="1" d="M 176.5 16 L 188 21.5 L 186.5 22 L 183.5 20 L 183 22 L 187 23 L 186 25.5 L 187 27.5 L 184.5 26 L 183 25.5 L 183 23.5 L 180 18 Q 176.2 18.8 176.5 16 Z " /><path fill="rgb(12,9,11)" stroke="rgb(12,9,11)" stroke-width="1" opacity="1" d="M 108.5 17 L 107.5 19 L 106 18.5 L 108.5 17 Z " /><path fill="rgb(12,9,11)" stroke="rgb(12,9,11)" stroke-width="1" opacity="1" d="M 90.5 18 L 90.5 20 L 94 21 Q 92.9 18.3 95.5 19 L 94.5 22 L 100.5 20 L 100.5 21 L 91.5 25 L 89 23.5 L 88.5 26 L 88 23.5 L 92 21.5 L 88 19.5 L 90.5 18 Z " /><path fill="rgb(12,9,11)" stroke="rgb(12,9,11)" stroke-width="1" opacity="1" d="M 82.5 22 L 86 23 L 83 27.5 L 83.5 29 L 75.5 34 L 77.5 31 L 80 29.5 L 79.5 28 L 81.5 29 L 81.5 26 L 78.5 25 L 77 25.5 L 82.5 22 Z M 83 23 L 80 25 L 83 26 Q 86 25 83 23 Z " /><path fill="rgb(12,9,11)" stroke="rgb(12,9,11)" stroke-width="1" opacity="1" d="M 178.5 23 L 181 24.5 L 179.5 24 L 178.5 23 Z " /><path fill="rgb(12,9,11)" stroke="rgb(12,9,11)" stroke-width="1" opacity="1" d="M 191.5 23 L 192.5 25 L 191.5 23 Z " /><path fill="rgb(12,9,11)" stroke="rgb(12,9,11)" stroke-width="1" opacity="1" d="M 188 24 L 191 25.5 Q 191.8 27.8 189.5 27 L 190.5 29 L 192 28.5 Q 190.8 31.3 189.5 29 Q 187.3 29.8 188 27.5 L 188 25.5 L 188 24 Z " /><path fill="rgb(12,9,11)" stroke="rgb(12,9,11)" stroke-width="1" opacity="1" d="M 194.5 25 L 193.5 27 L 194.5 25 Z " /><path fill="rgb(12,9,11)" stroke="rgb(12,9,11)" stroke-width="1" opacity="1" d="M 75.5 26 L 75.5 28 L 77 28.5 L 75.5 31 L 72.5 29 L 71 29.5 L 75.5 26 Z " /><path fill="rgb(12,9,11)" stroke="rgb(12,9,11)" stroke-width="1" opacity="1" d="M 86.5 26 L 85.5 28 L 86.5 26 Z " /><path fill="rgb(12,9,11)" stroke="rgb(12,9,11)" stroke-width="1" opacity="1" d="M 196.5 26 L 197.5 28 L 196 28.5 L 197.5 31 L 195 31.5 L 196.5 34 L 192 30.5 L 193.5 31 Q 195.8 31.8 195 29.5 L 194.5 28 Q 197 28.7 196.5 26 Z " /><path fill="rgb(12,9,11)" stroke="rgb(12,9,11)" stroke-width="1" opacity="1" d="M 199.5 28 L 200.5 30 L 199.5 28 Z " /><path fill="rgb(12,9,11)" stroke="rgb(12,9,11)" stroke-width="1" opacity="1" d="M 69.5 30 L 67.5 33 L 65 34.5 L 66.5 35 L 68.5 35 L 71 33.5 Q 68.8 32.3 71.5 31 L 72 33.5 L 72.5 35 L 74 34.5 L 71.5 36 Q 70.3 33.8 69 36.5 Q 71.8 38.3 67.5 40 L 67 37.5 Q 67.8 35.3 65.5 36 L 63 35.5 L 69.5 30 Z " /><path fill="rgb(12,9,11)" stroke="rgb(12,9,11)" stroke-width="1" opacity="1" d="M 202.5 30 L 209 35.5 L 207 36 L 206.5 39 L 205 36.5 L 207 36 L 205.5 33 Q 202.5 33.5 203 37.5 L 207.5 41 L 210 40 L 210.5 37 L 212 40 Q 209.3 38.9 210 41.5 L 211.5 45 L 212 43 Q 214.7 44.1 214 41.5 L 213.5 40 L 220 45.5 L 225 51.5 L 222.5 50 L 221.5 51 L 220 50.5 L 222 49.5 L 218 48 L 217.5 46 L 215.5 50 L 202 37.5 L 201 35.5 L 204 33.5 L 203.5 32 L 201 33.5 Q 204.1 31.8 202.5 30 Z M 215 43 L 215 46 L 213 46 L 215 48 Q 217 47 217 44 L 215 43 Z " /><path fill="rgb(12,9,11)" stroke="rgb(12,9,11)" stroke-width="1" opacity="1" d="M 199.5 33 L 199.5 36 Q 196.5 34.5 199.5 33 Z " /><path fill="rgb(12,9,11)" stroke="rgb(12,9,11)" stroke-width="1" opacity="1" d="M 61.5 37 Q 65.3 36.3 66 38.5 L 64 38.5 L 64.5 41 L 66 40.5 Q 64.3 43.8 62.5 40 L 59.5 39 L 56.5 44 L 55.5 43 L 52 45.5 L 61.5 37 Z " /><path fill="rgb(12,9,11)" stroke="rgb(12,9,11)" stroke-width="1" opacity="1" d="M 127.5 39 L 130 39.5 L 125 41.5 L 128 43 Q 126.9 40.3 129.5 41 L 128 43.5 Q 127.3 45.8 129.5 45 L 136 43.5 L 134 42.5 L 137.5 42 L 137.5 44 L 140 43.5 L 139.5 42 L 144.5 43 L 145 41 L 142 39.5 L 143.5 40 Q 155.9 42.1 161 51.5 L 162 53.5 L 160.5 53 L 157 52.5 L 157.5 51 L 154 52.5 L 159 55.5 L 158 57.5 L 159.5 61 L 161 60.5 L 160 65.5 L 161 65.5 L 161.5 62 L 162 65.5 L 161 67.5 L 161 69.5 L 159 80.5 L 160.5 83 L 164 80.5 Q 162.8 77.8 161.5 80 L 160 79.5 L 164 76.5 L 164.5 78 L 165 74.5 L 163.5 75 Q 160.9 75.7 162 73 L 164.5 72 L 166 77.5 L 163.5 83 L 162 82.5 L 163 84.5 L 160.5 88 L 159 84.5 L 159.5 83 L 156 84.5 L 157 89 Q 153.7 87.7 155 92.5 L 160 89.5 L 154 94.5 Q 156.3 93.3 153.5 92 Q 150.9 91.3 152 94 L 150 94 L 150 96 L 152.5 95 L 151.5 97 L 146.5 99 L 143.5 97 L 141 98.5 Q 143.3 99.8 140.5 101 L 137 100.5 L 141 99.5 L 134 97.5 L 138.5 97 L 140.5 97 L 143 95.5 L 140.5 95 L 135.5 96 Q 133.8 93.3 127.5 95 L 123 93 L 121.5 96 L 120 96.5 L 122 97.5 L 120.5 98 Q 117.8 96.8 120 95.5 L 122 91.5 L 120.5 91 L 118 92.5 L 118.5 94 L 116.5 90 L 115 90.5 L 118 95.5 L 109 87.5 L 112 88.5 L 111 86.5 L 114 85.5 L 111 84.5 L 113 81.5 L 111.5 80 Q 109.8 83.7 108 80.5 Q 108.8 76.8 106.5 76 L 105.5 79 L 105 76.5 L 107 73 Q 110.7 71.7 109 77.5 L 111 78.5 L 110 76.5 L 110 62.5 L 109 60 L 106 58.5 Q 107.3 52.8 111.5 50 L 113 49.5 Q 110.3 47.8 114.5 46 L 116.5 47 L 118.5 43 L 120.5 42 L 122 42.5 Q 121.3 40.3 123.5 41 L 127.5 39 Z M 124 43 L 123 44 Q 120 43 121 46 L 119 47 L 122 48 Q 124 47 122 46 L 125 44 L 124 43 Z M 143 43 L 145 46 L 147 43 L 145 44 L 143 43 Z M 149 43 L 149 45 Q 146 44 147 47 Q 149 45 151 48 Q 153 49 152 46 L 154 46 L 149 43 Z M 131 45 L 122 49 Q 114 54 111 64 Q 109 79 116 86 L 129 94 Q 134 93 136 95 L 149 91 Q 158 85 160 73 Q 160 60 154 54 Q 147 44 131 45 Z M 155 46 Q 153 49 156 48 L 155 46 Z M 154 48 Q 152 51 155 50 L 154 48 Z M 157 48 Q 155 51 158 50 L 157 48 Z M 116 49 L 115 52 L 115 53 L 117 52 L 116 49 Z M 111 52 L 109 56 L 113 57 Q 114 53 111 54 L 111 52 Z M 109 56 L 107 58 L 109 58 L 109 56 Z M 110 58 L 110 62 L 111 62 L 110 58 Z M 156 85 L 155 88 L 156 88 L 156 85 Z M 152 89 L 150 91 Q 152 94 153 91 Q 154 88 152 89 Z M 148 93 L 148 94 L 150 94 L 148 93 Z M 146 96 L 146 98 L 150 97 L 146 96 Z " /><path fill="rgb(12,9,11)" stroke="rgb(12,9,11)" stroke-width="1" opacity="1" d="M 60.5 42 L 61.5 44 L 63 43.5 L 54.5 52 L 52 51.5 L 52.5 50 Q 49.9 49.3 51 52 L 47 52 L 47 53.5 L 48 55.5 L 47 55.5 L 46.5 54 L 44 57.5 L 44.5 59 L 43.5 58 L 41 59.5 L 49.5 49 Q 50.8 51.3 52 48.5 L 50 47.5 L 51.5 47 L 52.5 48 L 55.5 45 Q 58.1 44.3 57 47 L 54 48.5 L 54.5 51 L 59.5 45 L 58 44.5 L 60.5 42 Z " /><path fill="rgb(12,9,11)" stroke="rgb(12,9,11)" stroke-width="1" opacity="1" d="M 220.5 52 L 224 53.5 Q 221.5 55 225 56.5 L 226 59.5 L 225 59.5 L 224.5 58 L 223.5 60 L 222 57 L 224 56.5 L 221.5 55 Q 219.8 57.7 218 53.5 L 220.5 52 Z " /><path fill="rgb(12,9,11)" stroke="rgb(12,9,11)" stroke-width="1" opacity="1" d="M 53.5 53 L 50 57.5 L 48.5 60 L 46 59.5 L 47.5 57 L 49.5 57 L 53.5 53 Z " /><path fill="rgb(12,9,11)" stroke="rgb(12,9,11)" stroke-width="1" opacity="1" d="M 225.5 53 L 231 59.5 L 229 59.5 L 230.5 63 L 231.5 61 L 234 64.5 L 232 68 L 229.5 69 L 230 67.5 L 232 63.5 L 230.5 64 L 228 65.5 L 228.5 67 L 224 61.5 L 226 61 L 227.5 65 L 229 62.5 L 227 59.5 L 228 56.5 L 225.5 53 Z " /><path fill="rgb(12,9,11)" stroke="rgb(12,9,11)" stroke-width="1" opacity="1" d="M 162.5 55 L 164 57.5 L 161.5 59 L 160 56.5 L 163 57.5 L 162.5 55 Z " /><path fill="rgb(12,9,11)" stroke="rgb(12,9,11)" stroke-width="1" opacity="1" d="M 43.5 60 L 45 60.5 Q 42.8 61.8 45.5 63 L 47 62.5 L 44 64 L 43.5 62 L 42 62.5 L 43.5 60 Z " /><path fill="rgb(12,9,11)" stroke="rgb(12,9,11)" stroke-width="1" opacity="1" d="M 40.5 61 L 40 62.5 Q 39.3 64.8 41.5 64 L 42 66.5 L 42.5 68 L 44.5 65 L 44 66.5 L 42.5 69 Q 40.8 65.9 39 67.5 L 38 64.5 L 40.5 61 Z " /><path fill="rgb(12,9,11)" stroke="rgb(12,9,11)" stroke-width="1" opacity="1" d="M 105 61 L 107 61.5 L 105.5 64 L 105 61 Z " /><path fill="rgb(12,9,11)" stroke="rgb(12,9,11)" stroke-width="1" opacity="1" d="M 165.5 62 L 166 65.5 L 165 65.5 L 165.5 62 Z " /><path fill="rgb(12,9,11)" stroke="rgb(12,9,11)" stroke-width="1" opacity="1" d="M 108.5 64 L 109 67 Q 106.3 65.9 107 68.5 L 109 71.5 L 107.5 71 Q 104.9 71.7 106 69 L 104 69 L 104 65.5 L 105 65.5 L 105.5 68 L 108.5 64 Z " /><path fill="rgb(12,9,11)" stroke="rgb(12,9,11)" stroke-width="1" opacity="1" d="M 163.5 64 L 165 69 Q 160.9 70.2 163.5 64 Z " /><path fill="rgb(12,9,11)" stroke="rgb(12,9,11)" stroke-width="1" opacity="1" d="M 37.5 66 L 37.5 69 Q 35.3 69.8 36 67.5 L 37.5 66 Z " /><path fill="rgb(12,9,11)" stroke="rgb(12,9,11)" stroke-width="1" opacity="1" d="M 166.5 67 L 167 72.5 L 166 72.5 L 166.5 67 Z " /><path fill="rgb(12,9,11)" stroke="rgb(12,9,11)" stroke-width="1" opacity="1" d="M 39.5 69 L 42 70.5 L 40.5 70 L 39.5 69 Z " /><path fill="rgb(12,9,11)" stroke="rgb(12,9,11)" stroke-width="1" opacity="1" d="M 231.5 69 L 234 69.5 L 230.5 71 L 231.5 69 Z " /><path fill="rgb(12,9,11)" stroke="rgb(12,9,11)" stroke-width="1" opacity="1" d="M 104.5 70 L 105 74.5 L 104 74.5 L 104.5 70 Z " /><path fill="rgb(12,9,11)" stroke="rgb(12,9,11)" stroke-width="1" opacity="1" d="M 27.5 76 Q 32.1 75.4 33.5 78 L 35 77.5 L 34.5 79 L 36.5 78 L 35.5 80 L 34 80.5 L 37 82 Q 35.8 85 39.5 84 L 39.5 83 L 38 82.5 L 40 81.5 L 38.5 79 Q 44.3 82.3 45 90.5 L 44 90.5 L 42.5 87 L 41 89.5 L 42 91.5 L 41 93.5 L 43.5 97 L 44.5 93 L 45 96.5 L 44 99.5 L 51 103.5 L 50.5 105 L 53.5 104 L 59 106.5 L 56.5 107 L 54.5 106 L 50 107 L 49.5 105 Q 46.8 106.3 49 107.5 Q 48.3 109.8 50.5 109 L 52 108.5 L 49.5 110 L 45 107.5 L 47 107 L 46.5 105 L 43.5 107 L 41 106 Q 42.1 103.3 39.5 104 L 38 103.5 Q 39.1 106.8 36.5 106 Q 33.2 108.7 26.5 108 L 26.5 107 L 32 106.5 L 31 104 L 28.5 103 L 27.5 105 L 26.5 103 L 28 102.5 L 21.5 99 L 21.5 101 L 19 102.5 L 19.5 104 Q 12.1 100.4 14 87.5 L 20.5 79 L 19.5 82 L 21.5 81 L 20 83.5 L 18 86.5 L 21 87 L 22.5 83 L 25 82.5 L 22 78.5 L 23.5 79 L 28 78.5 L 24 77.5 L 27.5 76 Z M 29 77 L 29 79 Q 30 82 28 81 L 28 82 L 33 82 L 30 80 L 32 79 L 29 77 Z M 18 83 Q 16 86 19 85 L 18 83 Z M 27 83 L 24 85 L 20 92 L 22 98 L 27 101 L 35 100 L 38 96 L 37 87 Q 35 82 27 83 Z M 17 85 L 15 88 Q 13 94 17 94 Q 15 92 18 91 L 17 85 Z M 40 90 L 39 96 L 41 95 L 40 90 Z M 18 94 L 16 97 L 18 96 L 18 94 Z M 43 97 L 41 99 L 42 102 L 43 102 L 43 97 Z M 17 98 L 18 99 L 17 101 L 19 102 Q 21 97 17 98 Z M 37 99 L 35 101 L 37 101 L 37 99 Z M 45 101 Q 43 104 41 103 L 43 105 L 46 103 L 49 105 L 49 103 L 45 101 Z M 30 102 L 30 103 L 34 105 Q 36 106 35 103 L 30 102 Z " /><path fill="rgb(12,9,11)" stroke="rgb(12,9,11)" stroke-width="1" opacity="1" d="M 240.5 76 L 247 76.5 L 240.5 77 L 240.5 76 Z " /><path fill="rgb(12,9,11)" stroke="rgb(12,9,11)" stroke-width="1" opacity="1" d="M 236.5 77 L 239 77.5 L 236 78.5 L 240.5 80 L 244.5 78 L 247.5 80 L 248.5 77 L 248.5 79 L 250.5 78 L 256 82.5 L 258 87.5 L 257 87.5 L 256.5 86 L 255 86.5 L 254.5 85 L 253 87.5 L 253 95.5 L 252 96.5 L 254.5 97 L 254.5 95 L 257 99.5 L 252.5 105 L 253.5 102 L 251 100.5 L 250.5 99 L 249 102.5 L 251 103.5 L 249 104.5 L 251 105.5 L 246.5 107 Q 245 104.5 243.5 108 L 242 107.5 L 244 106.5 L 240 104.5 L 241.5 105 L 244.5 106 L 246.5 106 L 248 105.5 L 247 102 L 239 102 L 239 104.5 L 238.5 107 L 231.5 103 L 230 103.5 Q 229.2 97.7 232.5 96 L 234.5 95 L 238.5 100 L 245.5 101 L 251 96.5 L 252 88.5 L 248.5 84 L 239.5 83 L 235 87.5 L 234 93.5 L 232.5 95 L 231 94.5 L 230.5 96 L 229 95.5 Q 230.9 100.9 227.5 100 L 225.5 101 L 225.5 100 L 228 98.5 Q 227.3 94.8 229.5 94 Q 231.8 94.8 231 92.5 L 232 92.5 L 232.5 94 L 234 87.5 L 232.5 88 L 229.5 86 L 227.5 94 L 227 90.5 L 229.5 84 L 230.5 86 L 232 85.5 L 232.5 87 L 234 83.5 L 232.5 81 L 230 82.5 L 236.5 77 Z M 236 79 L 233 81 L 237 81 L 236 79 Z M 244 79 L 242 81 L 248 83 L 248 81 L 244 79 Z M 252 80 Q 249 82 252 83 L 253 81 L 252 80 Z M 252 83 L 252 85 Q 250 86 253 87 L 254 85 Q 255 82 252 83 Z M 236 100 L 236 102 L 238 101 L 236 100 Z M 233 102 L 234 103 Q 235 105 236 103 L 233 102 Z " /><path fill="rgb(12,9,11)" stroke="rgb(12,9,11)" stroke-width="1" opacity="1" d="M 106.5 81 L 108 83.5 L 107 83.5 L 106.5 81 Z " /><path fill="rgb(12,9,11)" stroke="rgb(12,9,11)" stroke-width="1" opacity="1" d="M 109.5 83 L 110 84.5 L 108 85.5 L 109.5 83 Z " /><path fill="rgb(12,9,11)" stroke="rgb(12,9,11)" stroke-width="1" opacity="1" d="M 258.5 89 L 259 94.5 L 258 94.5 L 258.5 89 Z " /><path fill="rgb(12,9,11)" stroke="rgb(12,9,11)" stroke-width="1" opacity="1" d="M 126.5 96 L 127.5 98 L 126.5 96 Z " /><path fill="rgb(12,9,11)" stroke="rgb(12,9,11)" stroke-width="1" opacity="1" d="M 129 98 L 133 98.5 L 130 99.5 L 136 100.5 L 130.5 101 L 129 98 Z " /><path fill="rgb(12,9,11)" stroke="rgb(12,9,11)" stroke-width="1" opacity="1" d="M 223.5 101 Q 226.3 102.3 224 103.5 L 225.5 106 L 227.5 102 L 229 103.5 L 228.5 106 L 223.5 108 L 223.5 107 L 225 106.5 L 222 106 L 224 102.5 L 223.5 101 Z " /><path fill="rgb(12,9,11)" stroke="rgb(12,9,11)" stroke-width="1" opacity="1" d="M 21.5 102 L 25 104.5 L 24.5 107 L 21 105.5 L 21 103.5 L 21.5 102 Z " /><path fill="rgb(12,9,11)" stroke="rgb(12,9,11)" stroke-width="1" opacity="1" d="M 220.5 102 L 222 102.5 L 218.5 104 L 218.5 103 L 220.5 102 Z " /><path fill="rgb(12,9,11)" stroke="rgb(12,9,11)" stroke-width="1" opacity="1" d="M 216.5 104 L 219 105 L 218 109 L 221.5 107 L 222 109 L 216.5 111 L 216.5 110 L 218 109.5 L 216 108.5 L 216.5 104 Z " /><path fill="rgb(12,9,11)" stroke="rgb(12,9,11)" stroke-width="1" opacity="1" d="M 213.5 105 L 215 105.5 L 213 106.5 L 215 107 Q 216.1 109.7 213.5 109 L 211 108.5 L 211.5 106 L 213.5 105 Z " /><path fill="rgb(12,9,11)" stroke="rgb(12,9,11)" stroke-width="1" opacity="1" d="M 208.5 107 L 210 107.5 L 208 108.5 L 209 112 L 212 112.5 L 205.5 115 L 203.5 114 L 203.5 116 L 199.5 117 L 199.5 116 L 202 115.5 L 198 114.5 Q 199.3 111.8 200.5 114 L 204 113 L 205 110.5 L 203 109.5 L 208.5 107 Z M 206 109 L 206 114 L 209 113 L 207 111 L 208 110 L 206 109 Z " /><path fill="rgb(12,9,11)" stroke="rgb(12,9,11)" stroke-width="1" opacity="1" d="M 53.5 108 L 56 108.5 L 56.5 110 L 58.5 109 L 57.5 113 L 55 111.5 L 55.5 110 L 52.5 111 L 53 109.5 L 53.5 108 Z " /><path fill="rgb(12,9,11)" stroke="rgb(12,9,11)" stroke-width="1" opacity="1" d="M 62.5 108 L 66 109.5 L 64.5 110 L 62.5 108 Z " /><path fill="rgb(12,9,11)" stroke="rgb(12,9,11)" stroke-width="1" opacity="1" d="M 60.5 110 L 59.5 112 L 60.5 110 Z " /><path fill="rgb(12,9,11)" stroke="rgb(12,9,11)" stroke-width="1" opacity="1" d="M 197.5 111 L 199 111.5 L 194 113.5 L 195 116 L 191.5 117 L 191.5 116 Q 194.1 116.7 193 114 Q 189.6 113.3 188.5 116 L 187.5 114 L 197.5 111 Z " /><path fill="rgb(12,9,11)" stroke="rgb(12,9,11)" stroke-width="1" opacity="1" d="M 63.5 112 L 64 115 L 62 114.5 L 63.5 112 Z " /><path fill="rgb(12,9,11)" stroke="rgb(12,9,11)" stroke-width="1" opacity="1" d="M 73.5 112 L 85 115.5 L 82 116.5 L 82.5 118 L 80 116.5 L 82 115.5 L 79.5 115 L 78 116.5 L 79.5 119 L 77 118 L 76 115.5 L 79 114.5 L 73.5 113 L 73.5 112 Z " /><path fill="rgb(12,9,11)" stroke="rgb(12,9,11)" stroke-width="1" opacity="1" d="M 66.5 114 L 68 114.5 L 67.5 116 L 73 117.5 L 70.5 118 L 65 115.5 L 66.5 114 Z " /><path fill="rgb(12,9,11)" stroke="rgb(12,9,11)" stroke-width="1" opacity="1" d="M 22 115 L 28 116.5 L 25.5 117 L 23 116 L 22.5 135 L 22 115 Z " /><path fill="rgb(12,9,11)" stroke="rgb(12,9,11)" stroke-width="1" opacity="1" d="M 248.5 115 L 250 116.5 L 250 130.5 L 249 130.5 L 249 116.5 L 248.5 115 Z " /><path fill="rgb(12,9,11)" stroke="rgb(12,9,11)" stroke-width="1" opacity="1" d="M 179.5 116 L 183 116.5 L 176 118.5 L 178 119.5 L 176.5 120 L 172 118.5 L 179.5 116 Z " /><path fill="rgb(12,9,11)" stroke="rgb(12,9,11)" stroke-width="1" opacity="1" d="M 244 116 L 247 116.5 L 245 117 L 244.5 130 L 244 116 Z " /><path fill="rgb(12,9,11)" stroke="rgb(12,9,11)" stroke-width="1" opacity="1" d="M 89.5 117 L 92 117.5 L 89.5 118 L 89.5 117 Z " /><path fill="rgb(12,9,11)" stroke="rgb(12,9,11)" stroke-width="1" opacity="1" d="M 184.5 117 L 186.5 118 L 188 117.5 L 185.5 119 L 184.5 117 Z " /><path fill="rgb(12,9,11)" stroke="rgb(12,9,11)" stroke-width="1" opacity="1" d="M 195.5 117 L 198 117.5 L 193.5 119 L 193.5 118 L 195.5 117 Z " /><path fill="rgb(12,9,11)" stroke="rgb(12,9,11)" stroke-width="1" opacity="1" d="M 93.5 118 L 97 118.5 L 93.5 119 L 93.5 118 Z " /><path fill="rgb(12,9,11)" stroke="rgb(12,9,11)" stroke-width="1" opacity="1" d="M 27.5 119 L 28 125.5 L 27 125.5 L 27.5 119 Z " /><path fill="rgb(12,9,11)" stroke="rgb(12,9,11)" stroke-width="1" opacity="1" d="M 90.5 119 L 93 120.5 Q 90.8 121.8 93.5 123 L 95.5 122 L 95.5 124 Q 98.8 125.1 98 122.5 L 97.5 121 L 101 121.5 L 99 122 Q 100.8 126.5 95.5 125 L 91 123.5 Q 93.3 122.2 90.5 121 L 89 120.5 L 90.5 119 Z " /><path fill="rgb(12,9,11)" stroke="rgb(12,9,11)" stroke-width="1" opacity="1" d="M 98.5 119 L 102 119.5 L 98.5 120 L 98.5 119 Z " /><path fill="rgb(12,9,11)" stroke="rgb(12,9,11)" stroke-width="1" opacity="1" d="M 166.5 119 L 170 119.5 L 165 121.5 L 166 124 L 163 122.5 L 163.5 121 L 153.5 122 L 153.5 121 Q 161.9 121.9 166.5 119 Z " /><path fill="rgb(12,9,11)" stroke="rgb(12,9,11)" stroke-width="1" opacity="1" d="M 86.5 120 L 85.5 122 L 84 121.5 L 86.5 120 Z " /><path fill="rgb(12,9,11)" stroke="rgb(12,9,11)" stroke-width="1" opacity="1" d="M 103.5 120 L 114 121.5 L 107.5 122 L 103.5 121 L 103.5 120 Z " /><path fill="rgb(12,9,11)" stroke="rgb(12,9,11)" stroke-width="1" opacity="1" d="M 167.5 121 L 169.5 122 L 171 121.5 Q 171.8 123.8 169.5 123 L 167.5 121 Z " /><path fill="rgb(12,9,11)" stroke="rgb(12,9,11)" stroke-width="1" opacity="1" d="M 173.5 121 L 177 121.5 L 173.5 122 L 173.5 121 Z " /><path fill="rgb(12,9,11)" stroke="rgb(12,9,11)" stroke-width="1" opacity="1" d="M 87.5 122 L 90 122.5 L 87.5 123 L 87.5 122 Z " /><path fill="rgb(12,9,11)" stroke="rgb(12,9,11)" stroke-width="1" opacity="1" d="M 118 122 L 125 122.5 L 122.5 124 L 119.5 123 L 118 123.5 L 118 122 Z " /><path fill="rgb(12,9,11)" stroke="rgb(12,9,11)" stroke-width="1" opacity="1" d="M 145.5 122 L 150 122.5 L 145.5 123 L 145.5 122 Z " /><path fill="rgb(12,9,11)" stroke="rgb(12,9,11)" stroke-width="1" opacity="1" d="M 178.5 122 L 181 122.5 L 170.5 125 L 170.5 124 L 178.5 122 Z " /><path fill="rgb(12,9,11)" stroke="rgb(12,9,11)" stroke-width="1" opacity="1" d="M 129.5 123 L 140 123.5 L 129.5 124 L 129.5 123 Z " /><path fill="rgb(12,9,11)" stroke="rgb(12,9,11)" stroke-width="1" opacity="1" d="M 145.5 124 L 146.5 126 L 145.5 124 Z " /><path fill="rgb(12,9,11)" stroke="rgb(12,9,11)" stroke-width="1" opacity="1" d="M 159.5 124 L 168 125.5 L 162.5 126 L 159.5 125 L 159.5 124 Z " /><path fill="rgb(12,9,11)" stroke="rgb(12,9,11)" stroke-width="1" opacity="1" d="M 100.5 125 L 116.5 127 L 118 126.5 Q 118.9 129.5 114.5 128 L 113.5 127 L 100.5 126 L 100.5 125 Z " /><path fill="rgb(12,9,11)" stroke="rgb(12,9,11)" stroke-width="1" opacity="1" d="M 121.5 125 L 122.5 127 Q 119.7 127.7 121.5 125 Z " /><path fill="rgb(12,9,11)" stroke="rgb(12,9,11)" stroke-width="1" opacity="1" d="M 135.5 125 Q 137.8 124.3 137 126.5 L 135.5 125 Z " /><path fill="rgb(12,9,11)" stroke="rgb(12,9,11)" stroke-width="1" opacity="1" d="M 142.5 125 L 143 127 L 141 126.5 L 142.5 125 Z " /><path fill="rgb(12,9,11)" stroke="rgb(12,9,11)" stroke-width="1" opacity="1" d="M 155.5 126 L 161 126.5 L 155.5 127 L 155.5 126 Z " /><path fill="rgb(12,9,11)" stroke="rgb(12,9,11)" stroke-width="1" opacity="1" d="M 130.5 127 L 131 130 Q 128.3 128.9 129 131.5 L 130.5 131 L 133 131.5 L 131 132 L 131.5 135 L 132 133 Q 134.7 134.1 134 131.5 L 137 130 L 138 132.5 L 136.5 132 L 135 132.5 L 138.5 136 L 140 134.5 L 141.5 132 L 154 149.5 L 151.5 153 L 150.5 151 L 153 149.5 Q 151 146 149 150.5 L 150 153.5 L 148 152.5 L 146 149.5 L 148 149.5 L 148.5 148 L 150 148.5 L 151 146.5 L 148.5 143 L 148 145 Q 144.3 146.5 145 143.5 L 143 139.5 L 147 141.5 L 141.5 133 L 140 136.5 Q 142.3 137.7 139.5 139 L 135.5 134 Q 132.2 132.9 133 135.5 L 131 136.5 L 130.5 135 L 130 137.5 Q 132.3 138.8 129.5 140 L 128.5 137 L 127.5 139 L 124 138.5 L 121 143.5 Q 122.2 146.3 123.5 144 L 125.5 145 L 128.5 141 L 128 142.5 L 124.5 148 L 125 146.5 L 124.5 145 L 122.5 148 L 120 147.5 L 121 145.5 L 119 144.5 L 126.5 134 L 130 135 Q 131.3 132 127.5 133 L 128 131.5 Q 129.3 126.9 123.5 129 L 123.5 128 Q 129 129.5 130.5 127 Z M 127 135 Q 125 138 128 137 L 127 135 Z " /><path fill="rgb(12,9,11)" stroke="rgb(12,9,11)" stroke-width="1" opacity="1" d="M 134.5 127 L 135 128.5 L 133 129.5 L 134.5 127 Z " /><path fill="rgb(12,9,11)" stroke="rgb(12,9,11)" stroke-width="1" opacity="1" d="M 149.5 127 L 154 127.5 L 149.5 128 L 149.5 127 Z " /><path fill="rgb(12,9,11)" stroke="rgb(12,9,11)" stroke-width="1" opacity="1" d="M 141.5 128 L 141 129.5 L 140.5 131 L 139.5 129 L 141.5 128 Z " /><path fill="rgb(12,9,11)" stroke="rgb(12,9,11)" stroke-width="1" opacity="1" d="M 26.5 132 L 27 135 Q 24.3 136.1 25 133.5 L 26.5 132 Z " /><path fill="rgb(12,9,11)" stroke="rgb(12,9,11)" stroke-width="1" opacity="1" d="M 243.5 132 L 244 138.5 L 243 138.5 L 243.5 132 Z " /><path fill="rgb(12,9,11)" stroke="rgb(12,9,11)" stroke-width="1" opacity="1" d="M 248.5 134 L 249 140.5 L 248 140.5 L 248.5 134 Z " /><path fill="rgb(12,9,11)" stroke="rgb(12,9,11)" stroke-width="1" opacity="1" d="M 28.5 135 L 29 138.5 L 26 140.5 L 28.5 135 Z " /><path fill="rgb(12,9,11)" stroke="rgb(12,9,11)" stroke-width="1" opacity="1" d="M 23.5 137 L 24 140.5 L 23 140.5 L 23.5 137 Z " /><path fill="rgb(12,9,11)" stroke="rgb(12,9,11)" stroke-width="1" opacity="1" d="M 29.5 140 L 30 143.5 L 29 143.5 L 29.5 140 Z " /><path fill="rgb(12,9,11)" stroke="rgb(12,9,11)" stroke-width="1" opacity="1" d="M 140.5 140 L 144 144.5 L 141 142.5 L 140.5 140 Z " /><path fill="rgb(12,9,11)" stroke="rgb(12,9,11)" stroke-width="1" opacity="1" d="M 242.5 140 L 243 143.5 L 242 143.5 L 242.5 140 Z " /><path fill="rgb(12,9,11)" stroke="rgb(12,9,11)" stroke-width="1" opacity="1" d="M 247.5 142 L 248 146.5 L 245.5 155 L 245 151.5 L 246 147.5 L 245 147.5 L 244.5 149 L 244 147.5 L 245.5 145 L 246.5 147 L 247.5 142 Z " /><path fill="rgb(12,9,11)" stroke="rgb(12,9,11)" stroke-width="1" opacity="1" d="M 26.5 143 L 28 145.5 L 26 144.5 L 26.5 143 Z " /><path fill="rgb(12,9,11)" stroke="rgb(12,9,11)" stroke-width="1" opacity="1" d="M 24.5 144 L 26 150.5 L 25 150.5 L 24.5 144 Z " /><path fill="rgb(12,9,11)" stroke="rgb(12,9,11)" stroke-width="1" opacity="1" d="M 30.5 146 L 33 154.5 L 31 153.5 L 30.5 146 Z " /><path fill="rgb(12,9,11)" stroke="rgb(12,9,11)" stroke-width="1" opacity="1" d="M 118.5 146 L 118 147.5 L 119 149.5 L 117 149.5 L 119.5 153 L 121.5 152 L 120 154.5 L 118.5 157 L 119 155.5 L 117.5 153 L 116 153.5 L 117 151.5 L 115 152.5 L 112.5 156 L 114 153.5 L 118.5 146 Z " /><path fill="rgb(12,9,11)" stroke="rgb(12,9,11)" stroke-width="1" opacity="1" d="M 144.5 146 L 145.5 148 L 144.5 146 Z " /><path fill="rgb(12,9,11)" stroke="rgb(12,9,11)" stroke-width="1" opacity="1" d="M 241.5 146 Q 244.3 147.3 242 148.5 L 240.5 152 L 240 150.5 L 241.5 146 Z " /><path fill="rgb(12,9,11)" stroke="rgb(12,9,11)" stroke-width="1" opacity="1" d="M 27 147 Q 30 146 29 149 Q 26 150 27 147 Z " /><path fill="rgb(12,9,11)" stroke="rgb(12,9,11)" stroke-width="1" opacity="1" d="M 123.5 149 L 122.5 151 L 123.5 149 Z " /><path fill="rgb(12,9,11)" stroke="rgb(12,9,11)" stroke-width="1" opacity="1" d="M 154.5 151 L 160 158.5 L 157 156.5 L 155.5 154 L 155 155.5 L 156 157.5 L 155 157.5 L 154.5 156 L 153 158.5 L 154 161 L 156.5 160 L 159.5 163 L 160.5 162 L 164 164.5 L 161.5 163 L 158.5 165 Q 156.8 167.8 155 163.5 L 151 157.5 L 153 156.5 L 150 155.5 L 152.5 154 Q 153.8 156.3 155 153.5 L 154.5 151 Z M 157 161 L 156 164 L 158 165 L 157 161 Z " /><path fill="rgb(12,9,11)" stroke="rgb(12,9,11)" stroke-width="1" opacity="1" d="M 26 152 L 28 152.5 L 27 155 L 29 155.5 L 28 158.5 L 29 160.5 L 28 160.5 L 26 152 Z " /><path fill="rgb(12,9,11)" stroke="rgb(12,9,11)" stroke-width="1" opacity="1" d="M 31.5 156 L 31.5 158 L 33.5 157 L 36 163.5 L 34 162.5 L 33.5 160 L 32 160.5 L 32.5 159 L 30.5 160 L 30 157.5 L 31.5 156 Z " /><path fill="rgb(12,9,11)" stroke="rgb(12,9,11)" stroke-width="1" opacity="1" d="M 241 156 L 243 156.5 L 241 157.5 L 241 156 Z " /><path fill="rgb(12,9,11)" stroke="rgb(12,9,11)" stroke-width="1" opacity="1" d="M 244.5 156 L 245 157.5 L 241 168 L 239 167.5 L 239.5 165 L 241 165.5 L 240 163.5 L 242 163.5 L 244.5 156 Z " /><path fill="rgb(12,9,11)" stroke="rgb(12,9,11)" stroke-width="1" opacity="1" d="M 111.5 157 L 113 160.5 L 112.5 163 L 110.5 164 L 111 162.5 L 112 158.5 L 111 158.5 L 106.5 165 L 108 162.5 L 111.5 157 Z " /><path fill="rgb(12,9,11)" stroke="rgb(12,9,11)" stroke-width="1" opacity="1" d="M 114.5 157 L 118 158.5 L 116.5 160 L 114 159.5 L 114.5 157 Z " /><path fill="rgb(12,9,11)" stroke="rgb(12,9,11)" stroke-width="1" opacity="1" d="M 238.5 157 L 239 158.5 L 237.5 161 L 237 159.5 L 238.5 157 Z " /><path fill="rgb(12,9,11)" stroke="rgb(12,9,11)" stroke-width="1" opacity="1" d="M 115.5 161 L 114.5 163 L 115.5 161 Z " /><path fill="rgb(12,9,11)" stroke="rgb(12,9,11)" stroke-width="1" opacity="1" d="M 113.5 164 L 112.5 166 L 113.5 164 Z " /><path fill="rgb(12,9,11)" stroke="rgb(12,9,11)" stroke-width="1" opacity="1" d="M 30.5 165 L 32.5 169 L 36 167 L 36.5 165 L 39 169.5 L 36.5 168 Q 33.9 167.3 35 170 L 40 171 L 40 173.5 L 43 177.5 L 41 177.5 L 42 181 Q 38.3 179.5 39 182.5 L 44.5 186 L 42.5 182 L 44.5 183 Q 45.8 180.8 47 183.5 L 54 192.5 L 50 190.5 Q 51.5 194.9 48.5 194 Q 47.3 196.2 46 193.5 L 47 191 L 49 190.5 L 48.5 188 L 45.5 187 L 44 189.5 L 45.5 192 Q 42.3 190.7 42.5 186 L 41 186.5 L 41.5 185 L 38 182.5 L 36 178.5 L 39 177.5 Q 38.3 175.3 40.5 176 L 39.5 174 L 38 174.5 L 36.5 171 L 35 174.5 L 36 176.5 L 35 176.5 L 30.5 165 Z M 34 169 L 34 173 L 35 173 L 34 169 Z M 40 178 L 38 181 L 40 180 L 40 178 Z " /><path fill="rgb(12,9,11)" stroke="rgb(12,9,11)" stroke-width="1" opacity="1" d="M 109.5 165 Q 114 167 110.5 169 Q 108 168 109.5 165 Z " /><path fill="rgb(12,9,11)" stroke="rgb(12,9,11)" stroke-width="1" opacity="1" d="M 235.5 165 L 236.5 167 Q 234.3 166.3 235 168.5 L 236 170.5 L 235 170.5 L 234.5 169 L 233 169.5 L 235.5 165 Z " /><path fill="rgb(12,9,11)" stroke="rgb(12,9,11)" stroke-width="1" opacity="1" d="M 105.5 166 L 105 167.5 Q 104.3 169.8 106.5 169 L 108 168.5 L 107 172.5 Q 109.3 173.8 106.5 175 L 104 175.5 L 106 176.5 L 101.5 183 L 102 181.5 L 101.5 180 L 98 182 L 98.5 180 L 100 180.5 L 98.5 178 L 97 178.5 Q 98.8 175.3 100.5 179 L 102.5 180 L 104 176.5 L 103 176.5 L 102.5 178 L 102 176.5 L 105 171.5 L 103 170.5 L 101.5 173 L 102 171.5 L 105.5 166 Z " /><path fill="rgb(12,9,11)" stroke="rgb(12,9,11)" stroke-width="1" opacity="1" d="M 161.5 166 L 163.5 166 L 166 167.5 L 168 170.5 L 165 169.5 L 164.5 173 L 161 167.5 L 161.5 166 Z M 164 167 Q 162 170 165 169 L 164 167 Z " /><path fill="rgb(12,9,11)" stroke="rgb(12,9,11)" stroke-width="1" opacity="1" d="M 158.5 167 L 164 174.5 L 161 172.5 L 158.5 167 Z " /><path fill="rgb(12,9,11)" stroke="rgb(12,9,11)" stroke-width="1" opacity="1" d="M 239.5 169 L 240 170.5 L 238.5 173 L 238 171.5 L 239.5 169 Z " /><path fill="rgb(12,9,11)" stroke="rgb(12,9,11)" stroke-width="1" opacity="1" d="M 108 170 L 110 170.5 L 108 171.5 L 108 170 Z " /><path fill="rgb(12,9,11)" stroke="rgb(12,9,11)" stroke-width="1" opacity="1" d="M 168.5 172 L 174 179.5 L 171.5 178 L 169 179.5 L 171 176.5 L 169 175.5 Q 170.3 179.3 166.5 178 L 166.5 180 Q 163.5 178.5 166.5 177 Q 168.8 177.8 168 175.5 L 169 173.5 L 168.5 172 Z " /><path fill="rgb(12,9,11)" stroke="rgb(12,9,11)" stroke-width="1" opacity="1" d="M 232.5 172 L 232 173.5 Q 231.3 176.1 234 175 Q 232.3 170.9 236.5 172 L 236 173.5 L 236.5 175 L 238 174.5 L 233.5 182 Q 235.1 180.3 232 178.5 L 232.5 177 L 234.5 177 Q 237.1 177.7 236 175 L 232.5 176 L 230 175.5 L 232.5 172 Z " /><path fill="rgb(12,9,11)" stroke="rgb(12,9,11)" stroke-width="1" opacity="1" d="M 100.5 174 L 99.5 176 L 100.5 174 Z " /><path fill="rgb(12,9,11)" stroke="rgb(12,9,11)" stroke-width="1" opacity="1" d="M 43.5 179 L 44.5 181 L 43.5 179 Z " /><path fill="rgb(12,9,11)" stroke="rgb(12,9,11)" stroke-width="1" opacity="1" d="M 228.5 179 L 229.5 181 L 227 180.5 L 228.5 179 Z " /><path fill="rgb(12,9,11)" stroke="rgb(12,9,11)" stroke-width="1" opacity="1" d="M 96.5 180 L 96 181.5 L 98.5 185 L 100 184.5 L 99.5 183 Q 102.3 184.3 100 185.5 L 98.5 188 L 98.5 186 Q 94.1 184.5 95 187.5 L 97 187.5 Q 95.3 190.8 93.5 187 L 92 187.5 L 94 191 L 97.5 189 L 95.5 192 L 92 189.5 L 91 187.5 L 96 184.5 L 95.5 183 L 93 184.5 L 96.5 180 Z " /><path fill="rgb(12,9,11)" stroke="rgb(12,9,11)" stroke-width="1" opacity="1" d="M 167.5 181 L 170.5 183 L 172 182.5 L 171.5 184 L 173 184 Q 171.5 180.3 174.5 181 L 186 197.5 L 183 195.5 L 182.5 194 L 180 199.5 L 180.5 201 L 177 196.5 L 178.5 194 L 179.5 196 Q 183.8 194.2 181 192.5 L 179.5 190 L 176.5 195 L 171 187.5 L 172 185.5 L 169 184.5 L 167.5 181 Z M 176 185 L 172 188 L 174 191 L 176 190 L 176 192 L 179 190 L 178 187 L 177 189 L 176 189 L 177 187 Q 178 184 176 185 Z " /><path fill="rgb(12,9,11)" stroke="rgb(12,9,11)" stroke-width="1" opacity="1" d="M 226.5 182 L 229 182.5 L 224 186.5 L 226.5 188 L 227.5 186 L 229.5 187 L 231 186.5 L 222.5 197 L 219.5 193 Q 215.8 195 217.5 197 Q 216.3 194.8 215 197.5 L 215.5 199 Q 214.3 196.8 213 199.5 L 213.5 201 L 212 199.5 L 219 192.5 L 226.5 182 Z M 224 188 L 225 192 L 227 191 L 224 188 Z M 223 189 L 220 192 L 223 196 L 224 193 L 223 189 Z " /><path fill="rgb(12,9,11)" stroke="rgb(12,9,11)" stroke-width="1" opacity="1" d="M 231 183 L 233 183.5 L 231 184.5 L 231 183 Z " /><path fill="rgb(12,9,11)" stroke="rgb(12,9,11)" stroke-width="1" opacity="1" d="M 90.5 189 L 90.5 191 L 93 192.5 L 91.5 192 L 88 193.5 L 86 197.5 L 88.5 202 L 90 201.5 Q 87.3 202.3 88 206.5 L 91 212.5 L 90 212.5 L 88.5 208 L 87 210.5 L 89 214 L 87 214 Q 88.3 209.9 85 211 L 84.5 213 L 81.5 209 L 75.5 207 L 68 211.5 L 67 219.5 L 70.5 224 L 77.5 226 L 84 221.5 L 85.5 214 L 86 219.5 L 85 221.5 L 87 220.5 L 87.5 219 L 89.5 222 L 90.5 220 L 91 222.5 L 88.5 226 L 87 225.5 L 88 227.5 L 86.5 229 L 84 227.5 L 85 229.5 L 83.5 229 L 79 230.5 L 81 231.5 L 79.5 232 Q 77.8 228.9 76 230.5 L 78.5 227 L 74 227.5 L 74.5 229 L 72.5 228 L 71 228.5 L 70.5 227 L 70 229 L 67.5 230 L 64 227.5 L 62 224.5 L 65 222.5 L 62.5 221 L 61.5 223 L 61 220.5 L 61.5 219 Q 58.1 219.9 60 214.5 L 61 214.5 L 61.5 218 L 64.5 216 L 65.5 219 L 66 213 L 62.5 215 L 61 210.5 L 64.5 206 L 63 208.5 L 63.5 210 L 66 209 L 67 205.5 Q 64.8 204.3 67.5 203 L 71.5 201 L 83 201 L 90.5 189 Z M 86 198 L 84 201 Q 82 204 76 202 L 75 205 Q 71 204 72 207 L 77 205 Q 79 206 78 203 L 82 203 L 82 207 L 84 207 L 85 208 L 85 205 Q 88 206 87 204 L 85 204 L 87 201 L 86 198 Z M 71 203 L 69 205 L 70 207 L 71 205 L 71 203 Z M 67 209 Q 64 211 67 212 Q 70 211 67 209 Z M 81 226 L 82 228 Q 83 225 81 226 Z " /><path fill="rgb(12,9,11)" stroke="rgb(12,9,11)" stroke-width="1" opacity="1" d="M 94.5 193 L 93.5 195 L 94.5 193 Z " /><path fill="rgb(12,9,11)" stroke="rgb(12,9,11)" stroke-width="1" opacity="1" d="M 54.5 194 L 59 199.5 L 57 200.5 L 58 198 Q 55.3 196.9 56 199.5 Q 52.3 201.3 55.5 203 L 57 202.5 L 55.5 204 L 49 197.5 L 49.5 195 L 50.5 198 L 52 197.5 Q 49.8 198.8 52.5 200 L 53.5 197 Q 55.8 197.8 55 195.5 L 54.5 194 Z " /><path fill="rgb(12,9,11)" stroke="rgb(12,9,11)" stroke-width="1" opacity="1" d="M 91.5 195 Q 94.5 196.5 91.5 198 Q 88.5 196.5 91.5 195 Z " /><path fill="rgb(12,9,11)" stroke="rgb(12,9,11)" stroke-width="1" opacity="1" d="M 219.5 198 L 222 198.5 L 215.5 204 L 214.5 202 L 216.5 203 Q 221.3 200.5 219.5 198 Z " /><path fill="rgb(12,9,11)" stroke="rgb(12,9,11)" stroke-width="1" opacity="1" d="M 188.5 201 L 199.5 201 L 203 203.5 L 201.5 204 Q 199.6 200.3 193 202 Q 191.9 204.7 194.5 204 L 198.5 203 L 198.5 205 L 200 205.5 L 198.5 206 Q 197.3 203.8 196 206.5 L 201.5 209 L 201 207.5 L 202.5 205 L 204.5 204 L 209 210.5 L 208 210.5 L 207.5 209 Q 206 212.5 204.5 210 Q 202.3 209.3 203 211.5 L 205.5 215 Q 208.1 214.2 207 217.5 L 206 217.5 L 205.5 216 L 205 218.5 L 207 222 Q 209.7 220.9 209 223.5 L 203.5 230 L 198.5 232 L 198.5 231 L 202 230 Q 203.2 226.3 198 228 Q 199.3 231.7 193.5 230 L 191.5 230 L 190 230.5 L 192 231.5 L 189.5 232 L 186 229.5 L 186.5 228 L 184.5 229 L 180 223.5 L 184 223.5 L 185 219.5 L 183 212.5 L 185 207.5 L 183 206.5 L 180.5 210 L 182 207.5 L 183 204.5 L 181.5 202 L 184.5 203 L 188.5 201 Z M 189 202 L 189 206 L 192 207 L 193 205 L 191 204 L 191 203 L 189 202 Z M 191 208 L 185 216 L 186 221 L 192 226 L 190 226 L 191 229 L 191 227 Q 198 227 202 223 L 204 218 L 202 210 L 199 208 L 191 208 Z M 185 209 L 185 211 L 187 210 L 185 209 Z M 205 219 L 203 222 L 205 222 L 205 219 Z M 206 222 Q 204 225 207 224 L 206 222 Z M 200 225 L 200 227 L 202 226 L 200 225 Z M 194 227 L 194 228 L 197 228 L 194 227 Z " /><path fill="rgb(12,9,11)" stroke="rgb(12,9,11)" stroke-width="1" opacity="1" d="M 179.5 212 L 180 214.5 L 179 214.5 L 179.5 212 Z " /><path fill="rgb(12,9,11)" stroke="rgb(12,9,11)" stroke-width="1" opacity="1" d="M 91.5 214 L 92 218.5 L 91 218.5 L 91.5 214 Z " /><path fill="rgb(12,9,11)" stroke="rgb(12,9,11)" stroke-width="1" opacity="1" d="M 179.5 217 L 180 220.5 L 179 220.5 L 179.5 217 Z " /><path fill="rgb(12,9,11)" stroke="rgb(12,9,11)" stroke-width="1" opacity="1" d="M 98 225 L 107 227.5 L 104 229 Q 105.3 226 101.5 227 Q 99.8 224.2 98 228.5 Q 97.3 230.8 99.5 230 L 102 231.5 L 100.5 232 L 96 229.5 L 98 225 Z " /><path fill="rgb(12,9,11)" stroke="rgb(12,9,11)" stroke-width="1" opacity="1" d="M 171.5 225 L 174 228.5 L 172 227.5 L 171.5 225 Z " /><path fill="rgb(12,9,11)" stroke="rgb(12,9,11)" stroke-width="1" opacity="1" d="M 168.5 226 L 167.5 228 L 165 228.5 L 167 229.5 L 163 232 Q 161.9 229.3 164.5 230 L 164.5 229 Q 160 228 159 230.5 L 160 232.5 L 158 231.5 Q 158.8 229.3 156.5 230 L 156.5 229 L 164.5 228 L 168.5 226 Z " /><path fill="rgb(12,9,11)" stroke="rgb(12,9,11)" stroke-width="1" opacity="1" d="M 110.5 228 L 116 229.5 L 112 230 L 109.5 234 L 103 232.5 L 105 232 L 105.5 230 L 106.5 233 L 109 231.5 L 108 229.5 L 109.5 230 L 112 229.5 L 110.5 228 Z " /><path fill="rgb(12,9,11)" stroke="rgb(12,9,11)" stroke-width="1" opacity="1" d="M 69.5 230 L 72 231.5 L 70.5 232 L 69.5 230 Z " /><path fill="rgb(12,9,11)" stroke="rgb(12,9,11)" stroke-width="1" opacity="1" d="M 117 230 L 123 230.5 L 118 231 L 117.5 233 L 117 230 Z " /><path fill="rgb(12,9,11)" stroke="rgb(12,9,11)" stroke-width="1" opacity="1" d="M 149.5 230 Q 156.4 228 155 232 L 149.5 231 L 149.5 230 Z " /><path fill="rgb(12,9,11)" stroke="rgb(12,9,11)" stroke-width="1" opacity="1" d="M 172.5 230 L 175 230.5 L 170.5 232 L 170.5 231 L 172.5 230 Z " /><path fill="rgb(12,9,11)" stroke="rgb(12,9,11)" stroke-width="1" opacity="1" d="M 129.5 231 L 143 231.5 L 129.5 232 L 129.5 231 Z " /><path fill="rgb(12,9,11)" stroke="rgb(12,9,11)" stroke-width="1" opacity="1" d="M 147.5 232 L 148.5 234 L 147.5 232 Z " /><path fill="rgb(12,9,11)" stroke="rgb(12,9,11)" stroke-width="1" opacity="1" d="M 166.5 232 L 169 232.5 L 162.5 234 L 162.5 233 L 166.5 232 Z " /><path fill="rgb(12,9,11)" stroke="rgb(12,9,11)" stroke-width="1" opacity="1" d="M 124 233 L 126 233.5 L 124 234.5 L 124 233 Z " /><path fill="rgb(12,9,11)" stroke="rgb(12,9,11)" stroke-width="1" opacity="1" d="M 134.5 233 L 132.5 236 L 131 235.5 L 134.5 233 Z " /><path fill="rgb(12,9,11)" stroke="rgb(12,9,11)" stroke-width="1" opacity="1" d="M 114.5 234 Q 115.8 236.3 120.5 235 L 122 234.5 Q 121.5 237.5 128.5 236 L 129.5 237 L 142.5 237 L 143.5 236 L 155.5 235 L 155.5 236 L 143.5 237 L 142.5 238 L 129.5 238 L 128.5 237 L 115.5 236 L 114.5 234 Z " /><path fill="rgb(12,9,11)" stroke="rgb(12,9,11)" stroke-width="1" opacity="1" d="M 139.5 234 L 142 234.5 L 138.5 236 L 139.5 234 Z " /><path fill="rgb(88,157,178)" stroke="rgb(88,157,178)" stroke-width="1" opacity="1" d="M 126.5 8 L 146 8.5 L 126.5 9 L 126.5 8 Z " /><path fill="rgb(88,157,178)" stroke="rgb(88,157,178)" stroke-width="1" opacity="1" d="M 117.5 9 L 124 9.5 L 112.5 11 L 112.5 10 L 117.5 9 Z " /><path fill="rgb(88,157,178)" stroke="rgb(88,157,178)" stroke-width="1" opacity="1" d="M 148.5 9 L 160 10.5 L 155.5 11 Q 154 8.5 148.5 10 L 148.5 9 Z " /><path fill="rgb(88,157,178)" stroke="rgb(88,157,178)" stroke-width="1" opacity="1" d="M 107.5 11 L 111 11.5 L 107.5 12 L 107.5 11 Z " /><path fill="rgb(88,157,178)" stroke="rgb(88,157,178)" stroke-width="1" opacity="1" d="M 161.5 11 L 164 11.5 L 161.5 12 L 161.5 11 Z " /><path fill="rgb(88,157,178)" stroke="rgb(88,157,178)" stroke-width="1" opacity="1" d="M 101.5 13 L 104 13.5 L 93.5 17 L 93.5 16 L 101.5 13 Z " /><path fill="rgb(88,157,178)" stroke="rgb(88,157,178)" stroke-width="1" opacity="1" d="M 168.5 13 L 179 16.5 L 177.5 17 L 168.5 14 L 168.5 13 Z " /><path fill="rgb(88,157,178)" stroke="rgb(88,157,178)" stroke-width="1" opacity="1" d="M 126.5 15 L 146 15.5 L 126.5 16 L 126.5 15 Z " /><path fill="rgb(88,157,178)" stroke="rgb(88,157,178)" stroke-width="1" opacity="1" d="M 118.5 16 L 123 16.5 L 118.5 17 L 118.5 16 Z " /><path fill="rgb(88,157,178)" stroke="rgb(88,157,178)" stroke-width="1" opacity="1" d="M 149.5 16 Q 159.9 16.1 167 19.5 L 164.5 20 L 159.5 18 L 149.5 17 L 149.5 16 Z " /><path fill="rgb(88,157,178)" stroke="rgb(88,157,178)" stroke-width="1" opacity="1" d="M 90.5 17 L 92 17.5 L 89.5 19 L 90.5 17 Z " /><path fill="rgb(88,157,178)" stroke="rgb(88,157,178)" stroke-width="1" opacity="1" d="M 112.5 17 L 117 17.5 L 105.5 20 L 105.5 19 L 112.5 17 Z " /><path fill="rgb(88,157,178)" stroke="rgb(88,157,178)" stroke-width="1" opacity="1" d="M 180.5 17 L 189 21.5 L 187.5 21 L 180.5 18 L 180.5 17 Z " /><path fill="rgb(88,157,178)" stroke="rgb(88,157,178)" stroke-width="1" opacity="1" d="M 86.5 19 L 88 19.5 L 79.5 24 L 80.5 22 L 86.5 19 Z " /><path fill="rgb(88,157,178)" stroke="rgb(88,157,178)" stroke-width="1" opacity="1" d="M 101.5 20 L 104 20.5 L 99.5 22 L 99.5 21 L 101.5 20 Z " /><path fill="rgb(88,157,178)" stroke="rgb(88,157,178)" stroke-width="1" opacity="1" d="M 168.5 20 L 178 23.5 L 176.5 24 L 168.5 21 L 168.5 20 Z " /><path fill="rgb(88,157,178)" stroke="rgb(88,157,178)" stroke-width="1" opacity="1" d="M 96.5 22 L 98 22.5 L 94.5 24 L 94.5 23 L 96.5 22 Z " /><path fill="rgb(88,157,178)" stroke="rgb(88,157,178)" stroke-width="1" opacity="1" d="M 190.5 22 L 199 27.5 L 196.5 26 L 190.5 23 L 190.5 22 Z " /><path fill="rgb(88,157,178)" stroke="rgb(88,157,178)" stroke-width="1" opacity="1" d="M 77.5 24 L 76.5 26 L 74.5 27 L 75.5 25 L 77.5 24 Z " /><path fill="rgb(88,157,178)" stroke="rgb(88,157,178)" stroke-width="1" opacity="1" d="M 179.5 24 L 186 27.5 L 184.5 27 Q 179.5 26.9 179.5 24 Z " /><path fill="rgb(88,157,178)" stroke="rgb(88,157,178)" stroke-width="1" opacity="1" d="M 89.5 25 L 91 25.5 L 86.5 28 L 87.5 26 L 89.5 25 Z " /><path fill="rgb(88,157,178)" stroke="rgb(88,157,178)" stroke-width="1" opacity="1" d="M 72.5 27 L 70.5 30 L 67.5 32 L 69.5 29 L 72.5 27 Z " /><path fill="rgb(88,157,178)" stroke="rgb(88,157,178)" stroke-width="1" opacity="1" d="M 84.5 28 L 83.5 30 L 82 29.5 L 84.5 28 Z " /><path fill="rgb(88,157,178)" stroke="rgb(88,157,178)" stroke-width="1" opacity="1" d="M 187.5 28 Q 198 32.5 205 40.5 L 200.5 37 L 188.5 30 L 187.5 28 Z " /><path fill="rgb(88,157,178)" stroke="rgb(88,157,178)" stroke-width="1" opacity="1" d="M 200.5 28 L 205 31.5 L 202.5 30 L 200.5 28 Z " /><path fill="rgb(88,157,178)" stroke="rgb(88,157,178)" stroke-width="1" opacity="1" d="M 80.5 30 L 79.5 32 L 80.5 30 Z " /><path fill="rgb(88,157,178)" stroke="rgb(88,157,178)" stroke-width="1" opacity="1" d="M 65.5 32 L 60.5 38 L 52 45.5 Q 52.8 47.8 50.5 47 L 59.5 37 L 65.5 32 Z " /><path fill="rgb(88,157,178)" stroke="rgb(88,157,178)" stroke-width="1" opacity="1" d="M 77.5 32 L 75.5 35 Q 63 42 54.5 53 L 66.5 40 L 77.5 32 Z " /><path fill="rgb(88,157,178)" stroke="rgb(88,157,178)" stroke-width="1" opacity="1" d="M 206.5 32 L 220 44.5 L 215.5 41 L 206.5 32 Z " /><path fill="rgb(88,157,178)" stroke="rgb(88,157,178)" stroke-width="1" opacity="1" d="M 128.5 38 L 134 38.5 L 128.5 39 L 128.5 38 Z " /><path fill="rgb(88,157,178)" stroke="rgb(88,157,178)" stroke-width="1" opacity="1" d="M 136.5 38 L 142 38.5 L 136.5 39 L 136.5 38 Z " /><path fill="rgb(88,157,178)" stroke="rgb(88,157,178)" stroke-width="1" opacity="1" d="M 122.5 40 L 124 40.5 L 112 48.5 L 108.5 53 L 111 49.5 L 114.5 45 L 122.5 40 Z " /><path fill="rgb(88,157,178)" stroke="rgb(88,157,178)" stroke-width="1" opacity="1" d="M 206.5 41 L 217.5 53 L 206.5 41 Z " /><path fill="rgb(88,157,178)" stroke="rgb(88,157,178)" stroke-width="1" opacity="1" d="M 151.5 42 L 162 51.5 L 164 55.5 L 162 54.5 L 161 51.5 L 153.5 44 L 151.5 42 Z " /><path fill="rgb(88,157,178)" stroke="rgb(88,157,178)" stroke-width="1" opacity="1" d="M 130.5 45 Q 147.3 44.2 154 53.5 Q 160.3 59.7 160 72.5 Q 157.8 85.3 148.5 91 L 135.5 95 Q 134 92.5 128.5 94 L 116 85.5 Q 109 79 111 63.5 Q 114.2 54.2 121.5 49 L 130.5 45 Z " /><path fill="rgb(88,157,178)" stroke="rgb(88,157,178)" stroke-width="1" opacity="1" d="M 220.5 46 L 229 55.5 L 225 52.5 L 220.5 46 Z " /><path fill="rgb(88,157,178)" stroke="rgb(88,157,178)" stroke-width="1" opacity="1" d="M 49.5 48 L 46.5 52 L 49.5 48 Z " /><path fill="rgb(88,157,178)" stroke="rgb(88,157,178)" stroke-width="1" opacity="1" d="M 45.5 53 L 43.5 56 L 45.5 53 Z " /><path fill="rgb(88,157,178)" stroke="rgb(88,157,178)" stroke-width="1" opacity="1" d="M 53.5 54 L 50.5 58 L 53.5 54 Z " /><path fill="rgb(88,157,178)" stroke="rgb(88,157,178)" stroke-width="1" opacity="1" d="M 218.5 54 L 221.5 58 L 218.5 54 Z " /><path fill="rgb(88,157,178)" stroke="rgb(88,157,178)" stroke-width="1" opacity="1" d="M 42.5 57 L 41 59.5 L 35.5 69 L 35 67.5 L 42.5 57 Z " /><path fill="rgb(88,157,178)" stroke="rgb(88,157,178)" stroke-width="1" opacity="1" d="M 229.5 57 L 237 68.5 L 232.5 71 L 232.5 70 L 236 68.5 L 229.5 57 Z " /><path fill="rgb(88,157,178)" stroke="rgb(88,157,178)" stroke-width="1" opacity="1" d="M 105.5 58 L 106 60.5 L 104.5 65 L 104 61.5 L 105.5 58 Z " /><path fill="rgb(88,157,178)" stroke="rgb(88,157,178)" stroke-width="1" opacity="1" d="M 49.5 59 L 47.5 62 L 49.5 59 Z " /><path fill="rgb(88,157,178)" stroke="rgb(88,157,178)" stroke-width="1" opacity="1" d="M 222.5 59 L 223.5 61 L 222.5 59 Z " /><path fill="rgb(88,157,178)" stroke="rgb(88,157,178)" stroke-width="1" opacity="1" d="M 224.5 62 L 225.5 64 L 224.5 62 Z " /><path fill="rgb(88,157,178)" stroke="rgb(88,157,178)" stroke-width="1" opacity="1" d="M 46.5 63 L 46 64.5 L 44.5 67 L 45 65.5 L 46.5 63 Z " /><path fill="rgb(88,157,178)" stroke="rgb(88,157,178)" stroke-width="1" opacity="1" d="M 166.5 63 L 167 66.5 L 166 66.5 L 166.5 63 Z " /><path fill="rgb(88,157,178)" stroke="rgb(88,157,178)" stroke-width="1" opacity="1" d="M 226.5 65 L 231 71.5 L 229 70.5 L 226.5 65 Z " /><path fill="rgb(88,157,178)" stroke="rgb(88,157,178)" stroke-width="1" opacity="1" d="M 43.5 68 L 43 69.5 L 42.5 71 L 42 69.5 L 43.5 68 Z " /><path fill="rgb(88,157,178)" stroke="rgb(88,157,178)" stroke-width="1" opacity="1" d="M 103.5 68 L 104 71.5 L 103 71.5 L 103.5 68 Z " /><path fill="rgb(88,157,178)" stroke="rgb(88,157,178)" stroke-width="1" opacity="1" d="M 166.5 73 L 167 76.5 L 166 76.5 L 166.5 73 Z " /><path fill="rgb(88,157,178)" stroke="rgb(88,157,178)" stroke-width="1" opacity="1" d="M 104.5 75 Q 105.3 82.3 109 86.5 L 107 85.5 L 104 78.5 L 104.5 75 Z " /><path fill="rgb(88,157,178)" stroke="rgb(88,157,178)" stroke-width="1" opacity="1" d="M 240.5 75 L 246 75.5 L 237.5 77 L 237.5 76 L 240.5 75 Z " /><path fill="rgb(88,157,178)" stroke="rgb(88,157,178)" stroke-width="1" opacity="1" d="M 24.5 76 L 27 76.5 Q 19.5 78 16 83.5 L 14.5 87 L 14 85.5 L 20.5 78 L 24.5 76 Z " /><path fill="rgb(88,157,178)" stroke="rgb(88,157,178)" stroke-width="1" opacity="1" d="M 31.5 76 Q 40.5 77 44 83.5 L 45 86.5 L 44 86.5 L 38.5 79 L 31.5 77 L 31.5 76 Z " /><path fill="rgb(88,157,178)" stroke="rgb(88,157,178)" stroke-width="1" opacity="1" d="M 247.5 76 Q 254 77.5 257 82.5 L 258 84.5 L 256 83.5 L 252.5 79 L 247.5 77 L 247.5 76 Z " /><path fill="rgb(88,157,178)" stroke="rgb(88,157,178)" stroke-width="1" opacity="1" d="M 235.5 77 L 234.5 79 L 230 82.5 L 228.5 86 L 228 84.5 L 233.5 78 L 235.5 77 Z " /><path fill="rgb(88,157,178)" stroke="rgb(88,157,178)" stroke-width="1" opacity="1" d="M 164.5 81 L 165 82.5 L 162.5 86 L 163 84.5 L 164.5 81 Z " /><path fill="rgb(88,157,178)" stroke="rgb(88,157,178)" stroke-width="1" opacity="1" d="M 26.5 83 Q 34.8 81.7 37 86.5 L 38 95.5 L 34.5 100 L 26.5 101 L 22 97.5 L 20 91.5 L 23.5 85 L 26.5 83 Z " /><path fill="rgb(88,157,178)" stroke="rgb(88,157,178)" stroke-width="1" opacity="1" d="M 239.5 83 Q 247.5 81.5 250 85.5 Q 253.2 87.8 252 94.5 L 247.5 100 L 240.5 101 L 235 96.5 L 234 89.5 L 239.5 83 Z " /><path fill="rgb(88,157,178)" stroke="rgb(88,157,178)" stroke-width="1" opacity="1" d="M 258.5 86 L 259 88.5 L 258 88.5 L 258.5 86 Z " /><path fill="rgb(88,157,178)" stroke="rgb(88,157,178)" stroke-width="1" opacity="1" d="M 161.5 87 L 160.5 89 L 161.5 87 Z " /><path fill="rgb(88,157,178)" stroke="rgb(88,157,178)" stroke-width="1" opacity="1" d="M 227.5 87 L 228 89.5 L 227 89.5 L 227.5 87 Z " /><path fill="rgb(88,157,178)" stroke="rgb(88,157,178)" stroke-width="1" opacity="1" d="M 13.5 88 L 14 95.5 L 13 95.5 L 13.5 88 Z " /><path fill="rgb(88,157,178)" stroke="rgb(88,157,178)" stroke-width="1" opacity="1" d="M 45.5 88 L 46 95.5 L 45 95.5 L 45.5 88 Z " /><path fill="rgb(88,157,178)" stroke="rgb(88,157,178)" stroke-width="1" opacity="1" d="M 109.5 88 L 116.5 96 L 109.5 88 Z " /><path fill="rgb(88,157,178)" stroke="rgb(88,157,178)" stroke-width="1" opacity="1" d="M 159.5 90 L 155.5 95 L 159.5 90 Z " /><path fill="rgb(88,157,178)" stroke="rgb(88,157,178)" stroke-width="1" opacity="1" d="M 227.5 94 L 228 96.5 L 227 96.5 L 227.5 94 Z " /><path fill="rgb(88,157,178)" stroke="rgb(88,157,178)" stroke-width="1" opacity="1" d="M 153.5 95 L 152.5 97 L 153.5 95 Z " /><path fill="rgb(88,157,178)" stroke="rgb(88,157,178)" stroke-width="1" opacity="1" d="M 258.5 95 L 259 97.5 L 256.5 101 L 257 99.5 L 258.5 95 Z " /><path fill="rgb(88,157,178)" stroke="rgb(88,157,178)" stroke-width="1" opacity="1" d="M 118.5 96 L 119.5 98 L 118.5 96 Z " /><path fill="rgb(88,157,178)" stroke="rgb(88,157,178)" stroke-width="1" opacity="1" d="M 14.5 97 L 21.5 106 L 26 107.5 L 24.5 108 Q 17.6 106.4 15 100.5 L 14.5 97 Z " /><path fill="rgb(88,157,178)" stroke="rgb(88,157,178)" stroke-width="1" opacity="1" d="M 121.5 98 L 130 100.5 L 126.5 101 L 121.5 99 L 121.5 98 Z " /><path fill="rgb(88,157,178)" stroke="rgb(88,157,178)" stroke-width="1" opacity="1" d="M 227.5 98 L 226.5 100 L 221.5 102 L 221.5 101 L 227.5 98 Z " /><path fill="rgb(88,157,178)" stroke="rgb(88,157,178)" stroke-width="1" opacity="1" d="M 44.5 99 L 45.5 101 L 44.5 99 Z " /><path fill="rgb(88,157,178)" stroke="rgb(88,157,178)" stroke-width="1" opacity="1" d="M 145.5 99 L 147 99.5 L 141.5 101 L 141.5 100 L 145.5 99 Z " /><path fill="rgb(88,157,178)" stroke="rgb(88,157,178)" stroke-width="1" opacity="1" d="M 47.5 101 L 53 103.5 L 51.5 104 L 47.5 102 L 47.5 101 Z " /><path fill="rgb(88,157,178)" stroke="rgb(88,157,178)" stroke-width="1" opacity="1" d="M 131.5 101 L 140 101.5 L 131.5 102 L 131.5 101 Z " /><path fill="rgb(88,157,178)" stroke="rgb(88,157,178)" stroke-width="1" opacity="1" d="M 255.5 102 L 253.5 105 L 255.5 102 Z " /><path fill="rgb(88,157,178)" stroke="rgb(88,157,178)" stroke-width="1" opacity="1" d="M 216.5 103 L 218 103.5 L 214.5 105 L 214.5 104 L 216.5 103 Z " /><path fill="rgb(88,157,178)" stroke="rgb(88,157,178)" stroke-width="1" opacity="1" d="M 54.5 104 L 63 107.5 L 61.5 108 L 54.5 105 L 54.5 104 Z " /><path fill="rgb(88,157,178)" stroke="rgb(88,157,178)" stroke-width="1" opacity="1" d="M 231.5 104 L 235 105.5 L 233.5 105 L 227.5 107 L 227.5 106 L 231.5 104 Z " /><path fill="rgb(88,157,178)" stroke="rgb(88,157,178)" stroke-width="1" opacity="1" d="M 38.5 105 L 45 107.5 L 43.5 108 L 38.5 106 L 38.5 105 Z " /><path fill="rgb(88,157,178)" stroke="rgb(88,157,178)" stroke-width="1" opacity="1" d="M 211.5 105 L 213 105.5 L 207.5 108 L 208.5 106 L 211.5 105 Z " /><path fill="rgb(88,157,178)" stroke="rgb(88,157,178)" stroke-width="1" opacity="1" d="M 251.5 105 L 250.5 107 L 249 106.5 L 251.5 105 Z " /><path fill="rgb(88,157,178)" stroke="rgb(88,157,178)" stroke-width="1" opacity="1" d="M 236.5 106 L 242 107.5 L 238.5 108 L 236.5 106 Z " /><path fill="rgb(88,157,178)" stroke="rgb(88,157,178)" stroke-width="1" opacity="1" d="M 32.5 107 L 35 107.5 L 32.5 108 L 32.5 107 Z " /><path fill="rgb(88,157,178)" stroke="rgb(88,157,178)" stroke-width="1" opacity="1" d="M 244.5 107 L 248 107.5 L 244.5 108 L 244.5 107 Z " /><path fill="rgb(88,157,178)" stroke="rgb(88,157,178)" stroke-width="1" opacity="1" d="M 28.5 108 L 31 108.5 L 28.5 109 L 28.5 108 Z " /><path fill="rgb(88,157,178)" stroke="rgb(88,157,178)" stroke-width="1" opacity="1" d="M 64.5 108 L 78 112.5 L 75.5 113 L 64.5 109 L 64.5 108 Z " /><path fill="rgb(88,157,178)" stroke="rgb(88,157,178)" stroke-width="1" opacity="1" d="M 203.5 108 L 205 108.5 L 191.5 113 L 191.5 112 L 203.5 108 Z " /><path fill="rgb(88,157,178)" stroke="rgb(88,157,178)" stroke-width="1" opacity="1" d="M 222.5 108 L 224 108.5 L 220.5 110 L 220.5 109 L 222.5 108 Z " /><path fill="rgb(88,157,178)" stroke="rgb(88,157,178)" stroke-width="1" opacity="1" d="M 51.5 110 L 59 113.5 L 57.5 114 L 52.5 112 L 51.5 110 Z " /><path fill="rgb(88,157,178)" stroke="rgb(88,157,178)" stroke-width="1" opacity="1" d="M 212.5 112 L 214 112.5 L 210.5 114 L 210.5 113 L 212.5 112 Z " /><path fill="rgb(88,157,178)" stroke="rgb(88,157,178)" stroke-width="1" opacity="1" d="M 25.5 115 L 29 116.5 L 28.5 135 L 28 116 Q 24.7 116.8 25.5 115 Z " /><path fill="rgb(88,157,178)" stroke="rgb(88,157,178)" stroke-width="1" opacity="1" d="M 85.5 115 L 96 117.5 L 92.5 118 L 85.5 116 L 85.5 115 Z " /><path fill="rgb(88,157,178)" stroke="rgb(88,157,178)" stroke-width="1" opacity="1" d="M 181.5 115 L 184 115.5 L 181.5 116 L 181.5 115 Z " /><path fill="rgb(88,157,178)" stroke="rgb(88,157,178)" stroke-width="1" opacity="1" d="M 244.5 115 L 248 115.5 L 244 116 L 243.5 132 L 243 116.5 L 244.5 115 Z " /><path fill="rgb(88,157,178)" stroke="rgb(88,157,178)" stroke-width="1" opacity="1" d="M 21.5 116 L 22 129.5 L 21 129.5 L 21.5 116 Z " /><path fill="rgb(88,157,178)" stroke="rgb(88,157,178)" stroke-width="1" opacity="1" d="M 172.5 117 L 176 117.5 L 167.5 119 L 167.5 118 L 172.5 117 Z " /><path fill="rgb(88,157,178)" stroke="rgb(88,157,178)" stroke-width="1" opacity="1" d="M 198.5 117 L 200 117.5 L 185.5 122 L 185.5 121 L 198.5 117 Z " /><path fill="rgb(88,157,178)" stroke="rgb(88,157,178)" stroke-width="1" opacity="1" d="M 71.5 118 L 80 120.5 L 77.5 121 L 71.5 119 L 71.5 118 Z " /><path fill="rgb(88,157,178)" stroke="rgb(88,157,178)" stroke-width="1" opacity="1" d="M 97.5 118 L 101 118.5 L 97.5 119 L 97.5 118 Z " /><path fill="rgb(88,157,178)" stroke="rgb(88,157,178)" stroke-width="1" opacity="1" d="M 102.5 119 L 105 119.5 L 102.5 120 L 102.5 119 Z " /><path fill="rgb(88,157,178)" stroke="rgb(88,157,178)" stroke-width="1" opacity="1" d="M 107.5 120 L 113 120.5 L 107.5 121 L 107.5 120 Z " /><path fill="rgb(88,157,178)" stroke="rgb(88,157,178)" stroke-width="1" opacity="1" d="M 156.5 120 L 161 120.5 L 156.5 121 L 156.5 120 Z " /><path fill="rgb(88,157,178)" stroke="rgb(88,157,178)" stroke-width="1" opacity="1" d="M 250.5 120 L 251 125.5 L 250 125.5 L 250.5 120 Z " /><path fill="rgb(88,157,178)" stroke="rgb(88,157,178)" stroke-width="1" opacity="1" d="M 81.5 121 L 84 121.5 L 81.5 122 L 81.5 121 Z " /><path fill="rgb(88,157,178)" stroke="rgb(88,157,178)" stroke-width="1" opacity="1" d="M 114.5 121 L 120 121.5 L 114.5 122 L 114.5 121 Z " /><path fill="rgb(88,157,178)" stroke="rgb(88,157,178)" stroke-width="1" opacity="1" d="M 148.5 121 L 153 121.5 L 148.5 122 L 148.5 121 Z " /><path fill="rgb(88,157,178)" stroke="rgb(88,157,178)" stroke-width="1" opacity="1" d="M 125.5 122 L 145 122.5 L 125.5 123 L 125.5 122 Z " /><path fill="rgb(88,157,178)" stroke="rgb(88,157,178)" stroke-width="1" opacity="1" d="M 181.5 122 L 184 122.5 L 181.5 123 L 181.5 122 Z " /><path fill="rgb(88,157,178)" stroke="rgb(88,157,178)" stroke-width="1" opacity="1" d="M 88.5 123 L 91 123.5 L 88.5 124 L 88.5 123 Z " /><path fill="rgb(88,157,178)" stroke="rgb(88,157,178)" stroke-width="1" opacity="1" d="M 92.5 124 L 100 125.5 L 95.5 126 L 92.5 125 L 92.5 124 Z " /><path fill="rgb(88,157,178)" stroke="rgb(88,157,178)" stroke-width="1" opacity="1" d="M 173.5 124 L 177 124.5 L 167.5 127 L 145.5 129 L 145.5 128 L 153.5 128 L 173.5 124 Z " /><path fill="rgb(88,157,178)" stroke="rgb(88,157,178)" stroke-width="1" opacity="1" d="M 101.5 126 L 106 126.5 L 101.5 127 L 101.5 126 Z " /><path fill="rgb(88,157,178)" stroke="rgb(88,157,178)" stroke-width="1" opacity="1" d="M 107.5 127 L 114 127.5 L 107.5 128 L 107.5 127 Z " /><path fill="rgb(88,157,178)" stroke="rgb(88,157,178)" stroke-width="1" opacity="1" d="M 115.5 128 L 123 128.5 L 115.5 129 L 115.5 128 Z " /><path fill="rgb(88,157,178)" stroke="rgb(88,157,178)" stroke-width="1" opacity="1" d="M 142.5 128 L 144 128.5 L 142 129 Q 141.3 132.4 144 133.5 L 141 131.5 L 142.5 128 Z " /><path fill="rgb(88,157,178)" stroke="rgb(88,157,178)" stroke-width="1" opacity="1" d="M 127.5 131 L 127 132.5 L 125.5 135 L 126 133.5 L 127.5 131 Z " /><path fill="rgb(88,157,178)" stroke="rgb(88,157,178)" stroke-width="1" opacity="1" d="M 249.5 131 L 250 139.5 L 249 139.5 L 249.5 131 Z " /><path fill="rgb(88,157,178)" stroke="rgb(88,157,178)" stroke-width="1" opacity="1" d="M 242.5 133 L 243 139.5 L 242 139.5 L 242.5 133 Z " /><path fill="rgb(88,157,178)" stroke="rgb(88,157,178)" stroke-width="1" opacity="1" d="M 133.5 134 L 134 135.5 L 128.5 143 L 129 141.5 L 133.5 134 Z " /><path fill="rgb(88,157,178)" stroke="rgb(88,157,178)" stroke-width="1" opacity="1" d="M 135.5 134 L 141 141.5 L 139 140.5 L 135.5 134 Z " /><path fill="rgb(88,157,178)" stroke="rgb(88,157,178)" stroke-width="1" opacity="1" d="M 22.5 135 L 23 139.5 L 22 139.5 L 22.5 135 Z " /><path fill="rgb(88,157,178)" stroke="rgb(88,157,178)" stroke-width="1" opacity="1" d="M 144.5 135 L 145.5 137 L 144.5 135 Z " /><path fill="rgb(88,157,178)" stroke="rgb(88,157,178)" stroke-width="1" opacity="1" d="M 29.5 136 L 30 139.5 L 29 139.5 L 29.5 136 Z " /><path fill="rgb(88,157,178)" stroke="rgb(88,157,178)" stroke-width="1" opacity="1" d="M 124.5 136 L 123.5 138 L 124.5 136 Z " /><path fill="rgb(88,157,178)" stroke="rgb(88,157,178)" stroke-width="1" opacity="1" d="M 146.5 138 L 147.5 140 L 146.5 138 Z " /><path fill="rgb(88,157,178)" stroke="rgb(88,157,178)" stroke-width="1" opacity="1" d="M 122.5 139 L 121.5 141 L 122.5 139 Z " /><path fill="rgb(88,157,178)" stroke="rgb(88,157,178)" stroke-width="1" opacity="1" d="M 23.5 141 L 24 145.5 L 23 145.5 L 23.5 141 Z " /><path fill="rgb(88,157,178)" stroke="rgb(88,157,178)" stroke-width="1" opacity="1" d="M 148.5 141 L 149.5 143 L 148.5 141 Z " /><path fill="rgb(88,157,178)" stroke="rgb(88,157,178)" stroke-width="1" opacity="1" d="M 241.5 141 L 242 145.5 L 240.5 150 L 240 146.5 L 241.5 141 Z " /><path fill="rgb(88,157,178)" stroke="rgb(88,157,178)" stroke-width="1" opacity="1" d="M 248.5 141 L 249 145.5 L 248 145.5 L 248.5 141 Z " /><path fill="rgb(88,157,178)" stroke="rgb(88,157,178)" stroke-width="1" opacity="1" d="M 120.5 142 L 119.5 144 L 120.5 142 Z " /><path fill="rgb(88,157,178)" stroke="rgb(88,157,178)" stroke-width="1" opacity="1" d="M 30.5 143 L 31 145.5 L 30 145.5 L 30.5 143 Z " /><path fill="rgb(88,157,178)" stroke="rgb(88,157,178)" stroke-width="1" opacity="1" d="M 141.5 143 L 151 156.5 L 149 155.5 L 141.5 143 Z " /><path fill="rgb(88,157,178)" stroke="rgb(88,157,178)" stroke-width="1" opacity="1" d="M 127.5 144 L 126.5 146 L 127.5 144 Z " /><path fill="rgb(88,157,178)" stroke="rgb(88,157,178)" stroke-width="1" opacity="1" d="M 150.5 144 L 151.5 146 L 150.5 144 Z " /><path fill="rgb(88,157,178)" stroke="rgb(88,157,178)" stroke-width="1" opacity="1" d="M 118.5 145 L 117.5 147 L 118.5 145 Z " /><path fill="rgb(88,157,178)" stroke="rgb(88,157,178)" stroke-width="1" opacity="1" d="M 24.5 147 L 25 149.5 L 24 149.5 L 24.5 147 Z " /><path fill="rgb(88,157,178)" stroke="rgb(88,157,178)" stroke-width="1" opacity="1" d="M 31.5 147 L 32 149.5 L 31 149.5 L 31.5 147 Z " /><path fill="rgb(88,157,178)" stroke="rgb(88,157,178)" stroke-width="1" opacity="1" d="M 125.5 147 L 124.5 149 L 125.5 147 Z " /><path fill="rgb(88,157,178)" stroke="rgb(88,157,178)" stroke-width="1" opacity="1" d="M 152.5 147 L 156 151.5 L 154 150.5 L 152.5 147 Z " /><path fill="rgb(88,157,178)" stroke="rgb(88,157,178)" stroke-width="1" opacity="1" d="M 116.5 148 L 115.5 150 L 116.5 148 Z " /><path fill="rgb(88,157,178)" stroke="rgb(88,157,178)" stroke-width="1" opacity="1" d="M 123.5 150 L 122.5 152 L 123.5 150 Z " /><path fill="rgb(88,157,178)" stroke="rgb(88,157,178)" stroke-width="1" opacity="1" d="M 25.5 151 L 26 153.5 L 25 153.5 L 25.5 151 Z " /><path fill="rgb(88,157,178)" stroke="rgb(88,157,178)" stroke-width="1" opacity="1" d="M 32.5 151 L 34 156.5 L 33 156.5 L 32.5 151 Z " /><path fill="rgb(88,157,178)" stroke="rgb(88,157,178)" stroke-width="1" opacity="1" d="M 114.5 151 L 114 152.5 L 110.5 158 L 111 156.5 L 114.5 151 Z " /><path fill="rgb(88,157,178)" stroke="rgb(88,157,178)" stroke-width="1" opacity="1" d="M 239.5 151 L 240 153.5 L 238.5 157 L 238 154.5 L 239.5 151 Z " /><path fill="rgb(88,157,178)" stroke="rgb(88,157,178)" stroke-width="1" opacity="1" d="M 246.5 151 L 247 153.5 L 246 153.5 L 246.5 151 Z " /><path fill="rgb(88,157,178)" stroke="rgb(88,157,178)" stroke-width="1" opacity="1" d="M 121.5 153 L 120.5 155 L 121.5 153 Z " /><path fill="rgb(88,157,178)" stroke="rgb(88,157,178)" stroke-width="1" opacity="1" d="M 156.5 153 L 157.5 155 L 156.5 153 Z " /><path fill="rgb(88,157,178)" stroke="rgb(88,157,178)" stroke-width="1" opacity="1" d="M 26.5 155 L 27 157.5 L 26 157.5 L 26.5 155 Z " /><path fill="rgb(88,157,178)" stroke="rgb(88,157,178)" stroke-width="1" opacity="1" d="M 119.5 156 L 119 157.5 L 105.5 178 L 106 176.5 L 119.5 156 Z " /><path fill="rgb(88,157,178)" stroke="rgb(88,157,178)" stroke-width="1" opacity="1" d="M 158.5 156 L 159.5 158 L 158.5 156 Z " /><path fill="rgb(88,157,178)" stroke="rgb(88,157,178)" stroke-width="1" opacity="1" d="M 151.5 158 L 152.5 160 L 151.5 158 Z " /><path fill="rgb(88,157,178)" stroke="rgb(88,157,178)" stroke-width="1" opacity="1" d="M 109.5 159 L 108.5 161 L 109.5 159 Z " /><path fill="rgb(88,157,178)" stroke="rgb(88,157,178)" stroke-width="1" opacity="1" d="M 160.5 159 L 166 166.5 L 164 165.5 L 160.5 159 Z " /><path fill="rgb(88,157,178)" stroke="rgb(88,157,178)" stroke-width="1" opacity="1" d="M 35.5 161 L 38 166.5 L 37 166.5 L 35.5 161 Z " /><path fill="rgb(88,157,178)" stroke="rgb(88,157,178)" stroke-width="1" opacity="1" d="M 153.5 161 L 154.5 163 L 153.5 161 Z " /><path fill="rgb(88,157,178)" stroke="rgb(88,157,178)" stroke-width="1" opacity="1" d="M 243.5 161 L 244 163.5 L 242 164.5 L 243.5 161 Z " /><path fill="rgb(88,157,178)" stroke="rgb(88,157,178)" stroke-width="1" opacity="1" d="M 107.5 162 L 106 164.5 L 104.5 167 L 105 165.5 L 107.5 162 Z " /><path fill="rgb(88,157,178)" stroke="rgb(88,157,178)" stroke-width="1" opacity="1" d="M 235.5 163 L 236 164.5 L 234.5 167 L 234 165.5 L 235.5 163 Z " /><path fill="rgb(88,157,178)" stroke="rgb(88,157,178)" stroke-width="1" opacity="1" d="M 29.5 164 L 31 167.5 L 30 167.5 L 29.5 164 Z " /><path fill="rgb(88,157,178)" stroke="rgb(88,157,178)" stroke-width="1" opacity="1" d="M 155.5 164 L 159 168.5 L 157 167.5 L 155.5 164 Z " /><path fill="rgb(88,157,178)" stroke="rgb(88,157,178)" stroke-width="1" opacity="1" d="M 241.5 166 L 242 167.5 L 240.5 170 L 240 168.5 L 241.5 166 Z " /><path fill="rgb(88,157,178)" stroke="rgb(88,157,178)" stroke-width="1" opacity="1" d="M 103.5 168 L 102.5 170 L 103.5 168 Z " /><path fill="rgb(88,157,178)" stroke="rgb(88,157,178)" stroke-width="1" opacity="1" d="M 166.5 168 L 167.5 170 L 166.5 168 Z " /><path fill="rgb(88,157,178)" stroke="rgb(88,157,178)" stroke-width="1" opacity="1" d="M 233.5 168 L 233 169.5 L 231.5 173 L 232 171.5 L 233.5 168 Z " /><path fill="rgb(88,157,178)" stroke="rgb(88,157,178)" stroke-width="1" opacity="1" d="M 31.5 169 L 36 177.5 L 34 176.5 L 31.5 169 Z " /><path fill="rgb(88,157,178)" stroke="rgb(88,157,178)" stroke-width="1" opacity="1" d="M 159.5 170 L 160.5 172 L 159.5 170 Z " /><path fill="rgb(88,157,178)" stroke="rgb(88,157,178)" stroke-width="1" opacity="1" d="M 101.5 171 L 101 172.5 L 89.5 190 L 90 188.5 L 101.5 171 Z " /><path fill="rgb(88,157,178)" stroke="rgb(88,157,178)" stroke-width="1" opacity="1" d="M 168.5 171 L 169.5 173 L 168.5 171 Z " /><path fill="rgb(88,157,178)" stroke="rgb(88,157,178)" stroke-width="1" opacity="1" d="M 40.5 172 L 42 174.5 L 40 173.5 L 40.5 172 Z " /><path fill="rgb(88,157,178)" stroke="rgb(88,157,178)" stroke-width="1" opacity="1" d="M 161.5 173 L 165 177.5 L 163 176.5 L 161.5 173 Z " /><path fill="rgb(88,157,178)" stroke="rgb(88,157,178)" stroke-width="1" opacity="1" d="M 238.5 173 L 239 174.5 L 236.5 178 L 237 176.5 L 238.5 173 Z " /><path fill="rgb(88,157,178)" stroke="rgb(88,157,178)" stroke-width="1" opacity="1" d="M 170.5 174 L 171.5 176 L 170.5 174 Z " /><path fill="rgb(88,157,178)" stroke="rgb(88,157,178)" stroke-width="1" opacity="1" d="M 230.5 174 L 230 175.5 L 225.5 183 L 226 181.5 L 230.5 174 Z " /><path fill="rgb(88,157,178)" stroke="rgb(88,157,178)" stroke-width="1" opacity="1" d="M 42.5 176 L 45 179.5 L 43 178.5 L 42.5 176 Z " /><path fill="rgb(88,157,178)" stroke="rgb(88,157,178)" stroke-width="1" opacity="1" d="M 172.5 177 L 173.5 179 L 172.5 177 Z " /><path fill="rgb(88,157,178)" stroke="rgb(88,157,178)" stroke-width="1" opacity="1" d="M 104.5 179 L 103.5 181 L 104.5 179 Z " /><path fill="rgb(88,157,178)" stroke="rgb(88,157,178)" stroke-width="1" opacity="1" d="M 165.5 179 L 169 183.5 L 166 181.5 L 165.5 179 Z " /><path fill="rgb(88,157,178)" stroke="rgb(88,157,178)" stroke-width="1" opacity="1" d="M 174.5 180 L 175.5 182 L 174.5 180 Z " /><path fill="rgb(88,157,178)" stroke="rgb(88,157,178)" stroke-width="1" opacity="1" d="M 45.5 181 L 46.5 183 L 45.5 181 Z " /><path fill="rgb(88,157,178)" stroke="rgb(88,157,178)" stroke-width="1" opacity="1" d="M 234.5 181 L 234 182.5 L 222.5 198 L 226 193.5 L 234.5 181 Z " /><path fill="rgb(88,157,178)" stroke="rgb(88,157,178)" stroke-width="1" opacity="1" d="M 102.5 182 L 102 183.5 L 100.5 186 L 101 184.5 L 102.5 182 Z " /><path fill="rgb(88,157,178)" stroke="rgb(88,157,178)" stroke-width="1" opacity="1" d="M 38.5 183 L 49 196.5 L 45 193.5 L 38.5 183 Z " /><path fill="rgb(88,157,178)" stroke="rgb(88,157,178)" stroke-width="1" opacity="1" d="M 176.5 183 L 177.5 185 L 176.5 183 Z " /><path fill="rgb(88,157,178)" stroke="rgb(88,157,178)" stroke-width="1" opacity="1" d="M 47.5 184 L 53 190.5 L 49 187.5 L 47.5 184 Z " /><path fill="rgb(88,157,178)" stroke="rgb(88,157,178)" stroke-width="1" opacity="1" d="M 224.5 184 L 223 186.5 L 219.5 191 L 222 187.5 L 224.5 184 Z " /><path fill="rgb(88,157,178)" stroke="rgb(88,157,178)" stroke-width="1" opacity="1" d="M 169.5 185 L 170.5 187 L 169.5 185 Z " /><path fill="rgb(88,157,178)" stroke="rgb(88,157,178)" stroke-width="1" opacity="1" d="M 178.5 186 L 179.5 188 L 178.5 186 Z " /><path fill="rgb(88,157,178)" stroke="rgb(88,157,178)" stroke-width="1" opacity="1" d="M 99.5 187 L 98.5 189 L 99.5 187 Z " /><path fill="rgb(88,157,178)" stroke="rgb(88,157,178)" stroke-width="1" opacity="1" d="M 171.5 188 L 172.5 190 L 171.5 188 Z " /><path fill="rgb(88,157,178)" stroke="rgb(88,157,178)" stroke-width="1" opacity="1" d="M 180.5 189 L 181.5 191 L 180.5 189 Z " /><path fill="rgb(88,157,178)" stroke="rgb(88,157,178)" stroke-width="1" opacity="1" d="M 88.5 191 L 87.5 193 L 88.5 191 Z " /><path fill="rgb(88,157,178)" stroke="rgb(88,157,178)" stroke-width="1" opacity="1" d="M 96.5 191 L 96 192.5 L 90.5 201 L 91 199.5 L 96.5 191 Z " /><path fill="rgb(88,157,178)" stroke="rgb(88,157,178)" stroke-width="1" opacity="1" d="M 173.5 191 L 177 195.5 L 175 194.5 L 173.5 191 Z " /><path fill="rgb(88,157,178)" stroke="rgb(88,157,178)" stroke-width="1" opacity="1" d="M 182.5 192 L 183.5 194 L 182.5 192 Z " /><path fill="rgb(88,157,178)" stroke="rgb(88,157,178)" stroke-width="1" opacity="1" d="M 218.5 192 L 212 199.5 L 214 201.5 L 215.5 204 L 221.5 199 L 216.5 205 L 213 202.5 L 211 199.5 L 218.5 192 Z " /><path fill="rgb(88,157,178)" stroke="rgb(88,157,178)" stroke-width="1" opacity="1" d="M 54.5 193 L 60 199.5 L 57 201.5 L 59 198.5 L 54.5 193 Z " /><path fill="rgb(88,157,178)" stroke="rgb(88,157,178)" stroke-width="1" opacity="1" d="M 86.5 194 L 85.5 196 L 86.5 194 Z " /><path fill="rgb(88,157,178)" stroke="rgb(88,157,178)" stroke-width="1" opacity="1" d="M 184.5 195 L 185.5 197 L 184.5 195 Z " /><path fill="rgb(88,157,178)" stroke="rgb(88,157,178)" stroke-width="1" opacity="1" d="M 84.5 197 L 83.5 199 L 84.5 197 Z " /><path fill="rgb(88,157,178)" stroke="rgb(88,157,178)" stroke-width="1" opacity="1" d="M 177.5 197 L 178.5 199 L 177.5 197 Z " /><path fill="rgb(88,157,178)" stroke="rgb(88,157,178)" stroke-width="1" opacity="1" d="M 49.5 198 L 54.5 204 L 49.5 198 Z " /><path fill="rgb(88,157,178)" stroke="rgb(88,157,178)" stroke-width="1" opacity="1" d="M 186.5 198 L 188.5 201 Q 186.3 201.8 187 199.5 L 186.5 198 Z " /><path fill="rgb(88,157,178)" stroke="rgb(88,157,178)" stroke-width="1" opacity="1" d="M 71.5 200 L 80 200.5 Q 66.5 199.5 62.5 208 L 67.5 202 L 71.5 200 Z " /><path fill="rgb(88,157,178)" stroke="rgb(88,157,178)" stroke-width="1" opacity="1" d="M 179.5 200 L 183 205.5 L 182 205.5 L 179.5 200 Z " /><path fill="rgb(88,157,178)" stroke="rgb(88,157,178)" stroke-width="1" opacity="1" d="M 190.5 200 L 199 200.5 L 190.5 201 L 190.5 200 Z " /><path fill="rgb(88,157,178)" stroke="rgb(88,157,178)" stroke-width="1" opacity="1" d="M 89.5 202 L 88.5 204 L 89.5 202 Z " /><path fill="rgb(88,157,178)" stroke="rgb(88,157,178)" stroke-width="1" opacity="1" d="M 202.5 202 L 207 205.5 L 204.5 204 L 202.5 202 Z " /><path fill="rgb(88,157,178)" stroke="rgb(88,157,178)" stroke-width="1" opacity="1" d="M 88.5 206 L 89.5 208 L 88.5 206 Z " /><path fill="rgb(88,157,178)" stroke="rgb(88,157,178)" stroke-width="1" opacity="1" d="M 75.5 207 L 83 210.5 Q 86.2 212.8 85 219.5 L 81.5 224 L 74.5 226 L 68 221.5 L 67 213.5 L 70.5 209 L 75.5 207 Z " /><path fill="rgb(88,157,178)" stroke="rgb(88,157,178)" stroke-width="1" opacity="1" d="M 181.5 207 L 180.5 209 L 181.5 207 Z " /><path fill="rgb(88,157,178)" stroke="rgb(88,157,178)" stroke-width="1" opacity="1" d="M 207.5 207 L 208.5 209 L 207.5 207 Z " /><path fill="rgb(88,157,178)" stroke="rgb(88,157,178)" stroke-width="1" opacity="1" d="M 190.5 208 L 198.5 208 L 202 210 L 204 217.5 L 202 223 L 196.5 226 L 192.5 226 L 186 220.5 L 185 215.5 L 190.5 208 Z " /><path fill="rgb(88,157,178)" stroke="rgb(88,157,178)" stroke-width="1" opacity="1" d="M 60.5 211 L 61 213.5 L 60 213.5 L 60.5 211 Z " /><path fill="rgb(88,157,178)" stroke="rgb(88,157,178)" stroke-width="1" opacity="1" d="M 91.5 211 L 92 213.5 L 91 213.5 L 91.5 211 Z " /><path fill="rgb(88,157,178)" stroke="rgb(88,157,178)" stroke-width="1" opacity="1" d="M 178.5 213 Q 177.9 224.6 184.5 229 L 189 231.5 L 187.5 232 L 181 226.5 Q 176.4 222.1 178.5 213 Z " /><path fill="rgb(88,157,178)" stroke="rgb(88,157,178)" stroke-width="1" opacity="1" d="M 210.5 213 L 211 219.5 L 210 219.5 L 210.5 213 Z " /><path fill="rgb(88,157,178)" stroke="rgb(88,157,178)" stroke-width="1" opacity="1" d="M 59.5 215 L 61 221.5 L 60 221.5 L 59.5 215 Z " /><path fill="rgb(88,157,178)" stroke="rgb(88,157,178)" stroke-width="1" opacity="1" d="M 91.5 219 L 92 221.5 L 91 221.5 L 91.5 219 Z " /><path fill="rgb(88,157,178)" stroke="rgb(88,157,178)" stroke-width="1" opacity="1" d="M 209.5 221 L 210 223.5 L 208 224.5 L 209.5 221 Z " /><path fill="rgb(88,157,178)" stroke="rgb(88,157,178)" stroke-width="1" opacity="1" d="M 61.5 223 L 64 226.5 L 61 224.5 L 61.5 223 Z " /><path fill="rgb(88,157,178)" stroke="rgb(88,157,178)" stroke-width="1" opacity="1" d="M 98.5 224 L 103 225.5 L 101.5 226 L 98.5 225 L 98.5 224 Z " /><path fill="rgb(88,157,178)" stroke="rgb(88,157,178)" stroke-width="1" opacity="1" d="M 171.5 224 L 174 227.5 L 173 227.5 L 171.5 225 L 161.5 228 L 161.5 227 L 171.5 224 Z " /><path fill="rgb(88,157,178)" stroke="rgb(88,157,178)" stroke-width="1" opacity="1" d="M 89.5 225 L 88.5 227 L 89.5 225 Z " /><path fill="rgb(88,157,178)" stroke="rgb(88,157,178)" stroke-width="1" opacity="1" d="M 104.5 226 L 111 227.5 L 107.5 228 L 104.5 227 L 104.5 226 Z " /><path fill="rgb(88,157,178)" stroke="rgb(88,157,178)" stroke-width="1" opacity="1" d="M 207.5 226 L 204.5 230 L 207.5 226 Z " /><path fill="rgb(88,157,178)" stroke="rgb(88,157,178)" stroke-width="1" opacity="1" d="M 66.5 229 L 70 231.5 L 68.5 231 L 66.5 229 Z " /><path fill="rgb(88,157,178)" stroke="rgb(88,157,178)" stroke-width="1" opacity="1" d="M 85.5 229 L 84.5 231 L 77.5 233 L 77.5 232 Q 83.6 232.6 85.5 229 Z " /><path fill="rgb(88,157,178)" stroke="rgb(88,157,178)" stroke-width="1" opacity="1" d="M 116.5 229 L 120 229.5 L 116.5 230 L 116.5 229 Z " /><path fill="rgb(88,157,178)" stroke="rgb(88,157,178)" stroke-width="1" opacity="1" d="M 151.5 229 L 156 229.5 L 151.5 230 L 151.5 229 Z " /><path fill="rgb(88,157,178)" stroke="rgb(88,157,178)" stroke-width="1" opacity="1" d="M 174.5 229 L 175.5 231 L 174.5 229 Z " /><path fill="rgb(88,157,178)" stroke="rgb(88,157,178)" stroke-width="1" opacity="1" d="M 123.5 230 L 134 230.5 L 123.5 231 L 123.5 230 Z " /><path fill="rgb(88,157,178)" stroke="rgb(88,157,178)" stroke-width="1" opacity="1" d="M 138.5 230 L 149 230.5 L 138.5 231 L 138.5 230 Z " /><path fill="rgb(88,157,178)" stroke="rgb(88,157,178)" stroke-width="1" opacity="1" d="M 202.5 230 L 201.5 232 L 200 231.5 L 202.5 230 Z " /><path fill="rgb(88,157,178)" stroke="rgb(88,157,178)" stroke-width="1" opacity="1" d="M 71.5 232 L 75 232.5 L 71.5 233 L 71.5 232 Z " /><path fill="rgb(88,157,178)" stroke="rgb(88,157,178)" stroke-width="1" opacity="1" d="M 190.5 232 L 194 232.5 L 190.5 233 L 190.5 232 Z " /><path fill="rgb(88,157,178)" stroke="rgb(88,157,178)" stroke-width="1" opacity="1" d="M 195.5 232 L 199 232.5 L 195.5 233 L 195.5 232 Z " /><path fill="rgb(88,157,178)" stroke="rgb(88,157,178)" stroke-width="1" opacity="1" d="M 107.5 234 L 115 235.5 L 111.5 236 L 107.5 235 L 107.5 234 Z " /><path fill="rgb(88,157,178)" stroke="rgb(88,157,178)" stroke-width="1" opacity="1" d="M 161.5 234 L 165 234.5 L 156.5 236 L 156.5 235 L 161.5 234 Z " /><path fill="rgb(88,157,178)" stroke="rgb(88,157,178)" stroke-width="1" opacity="1" d="M 117.5 236 L 122 236.5 L 117.5 237 L 117.5 236 Z " /><path fill="rgb(88,157,178)" stroke="rgb(88,157,178)" stroke-width="1" opacity="1" d="M 150.5 236 L 155 236.5 L 150.5 237 L 150.5 236 Z " /><path fill="rgb(88,157,178)" stroke="rgb(88,157,178)" stroke-width="1" opacity="1" d="M 126.5 237 L 129 237.5 L 126.5 238 L 126.5 237 Z " /><path fill="rgb(88,157,178)" stroke="rgb(88,157,178)" stroke-width="1" opacity="1" d="M 143.5 237 L 147 237.5 L 143.5 238 L 143.5 237 Z " /><path fill="rgb(1,2,4)" stroke="rgb(1,2,4)" stroke-width="1" opacity="1" d="M 136.5 9 L 138.5 10 L 155.5 11 L 168 14.5 L 166.5 17 Q 169.8 15.9 169 18.5 L 169.5 20 L 151.5 15 L 128.5 14 L 127.5 15 L 112.5 16 L 109.5 18 L 107.5 18 L 103.5 19 L 103.5 17 L 101 15.5 L 107.5 13 L 109.5 13 L 113.5 12 L 115 12.5 Q 114.5 9.5 121.5 11 L 122.5 10 L 135.5 10 L 136.5 9 Z M 146 11 L 146 12 L 148 12 L 146 11 Z M 142 12 L 142 13 L 145 13 L 142 12 Z M 107 15 L 106 17 L 108 16 L 107 15 Z " /><path fill="rgb(1,2,4)" stroke="rgb(1,2,4)" stroke-width="1" opacity="1" d="M 99.5 15 L 102 19.5 L 94.5 22 L 92.5 21 L 89 22.5 L 92 23.5 L 89 25 L 88.5 23 L 88 26 L 83.5 28 L 86 24.5 Q 86.8 21.9 83.5 23 L 81.5 29 L 72.5 35 L 71.5 33 Q 68.8 34.3 71 35.5 Q 71.8 37.8 69.5 37 L 64 41.5 Q 64.8 43.8 62.5 43 L 49.5 57 L 46 58.5 L 46.5 60 L 49 58.5 L 45.5 63 L 44 62.5 L 45 64.5 L 41.5 70 L 37 67.5 L 38.5 65 L 39.5 68 L 42 67.5 L 41 65.5 L 41.5 64 Q 39.3 64.8 40 62.5 L 47 52 L 51 52 L 51 50.5 L 49 50.5 L 50 48 Q 52.7 49.1 52 46.5 L 59.5 39 L 60.5 40 L 63.5 41 L 65 37.5 L 62 36.5 L 72.5 29 L 75.5 31 L 77 28.5 L 75.5 28 L 74 28.5 L 83.5 22 L 97.5 16 L 99 16.5 L 99.5 15 Z M 94 19 L 94 21 L 96 20 L 94 19 Z M 69 35 L 67 38 L 70 36 L 69 35 Z M 61 42 L 59 45 L 61 44 L 61 42 Z M 56 45 L 51 50 L 54 51 L 54 49 L 57 47 Q 58 44 56 45 Z M 44 60 L 42 63 L 45 61 L 44 60 Z " /><path fill="rgb(1,2,4)" stroke="rgb(1,2,4)" stroke-width="1" opacity="1" d="M 169.5 15 L 180 18 L 180.5 20 L 182 19.5 Q 179.8 20.8 182.5 22 L 183.5 20 L 196 26 Q 194.8 29 198.5 28 L 204 32.5 L 204.5 34 Q 205.8 31.7 207 34.5 Q 206.2 37.5 210 36 L 210 40 L 211.5 40 L 213 39.5 L 214.5 43 Q 215.8 40.8 217 43.5 L 217.5 46 L 219 45.5 L 218 48 L 220.5 48 L 225 52.5 L 228 58.5 L 227 60.5 L 229 61.5 L 229.5 59 L 232 64.5 L 230 68 Q 232.7 69.1 232 66.5 L 234 65.5 L 235 69 L 230.5 70 L 226 61 Q 223 62.3 224 58.5 L 225 56.5 L 223.5 57 Q 219.8 58 221 55 L 224 53.5 L 220.5 52 L 218 53 L 217.5 50 L 216 50.5 L 213 45.5 L 214 43 Q 211.3 41.9 212 44.5 L 206.5 40 L 203 37.5 Q 204.1 34.2 201.5 35 L 201.5 37 L 188.5 27 L 187 27.5 L 186 25.5 L 187 23 L 181.5 25 Q 180.4 22.2 177 23 Q 175.9 20.3 178.5 21 L 178.5 20 L 175.5 18 L 175 19.5 L 176 21.5 L 175 21.5 L 174.5 20 L 172.5 20 Q 170.3 20.8 171 18.5 L 172 16 Q 168.7 16.8 169.5 15 Z M 183 22 L 183 24 L 185 23 L 183 22 Z M 188 24 L 188 26 L 190 25 L 188 24 Z M 191 25 L 189 27 L 191 27 L 191 25 Z M 195 28 L 195 31 L 198 31 L 195 28 Z M 206 36 L 206 39 L 207 39 Q 208 35 206 36 Z M 209 40 L 210 42 Q 211 39 209 40 Z M 217 46 L 215 48 L 217 49 L 217 46 Z M 230 62 L 228 64 L 229 65 L 231 64 L 230 62 Z " /><path fill="rgb(1,2,4)" stroke="rgb(1,2,4)" stroke-width="1" opacity="1" d="M 130.5 39 Q 141.3 37.2 145 41 Q 143.9 43.7 146.5 43 L 148.5 42 L 160 51.5 L 157 52.5 L 162 54.5 Q 166.6 61.4 166 73.5 L 164.5 78 L 163.5 76 L 160.5 80 L 162.5 79 L 163.5 81 L 162 81.5 L 163 83.5 L 162 83.5 L 161.5 82 Q 158.5 82.5 159 86.5 L 160 86.5 L 160.5 85 L 161 86.5 L 153.5 95 L 142.5 100 L 140.5 100 L 136.5 101 L 130 99.5 L 133 98.5 L 129 98 L 128.5 100 Q 120.2 98.8 116 93.5 L 115.5 91 L 114 91.5 L 114.5 89 L 119.5 92 L 117.5 88 L 122 91.5 L 120 96 L 123 94.5 Q 122.3 92.3 124.5 93 L 127.5 95 L 139.5 96 L 143.5 94 L 141.5 97 L 139.5 98 L 134.5 97 L 134.5 98 L 140.5 99 L 143.5 97 L 146 98 L 146 96 Q 151.2 97.7 150 94 L 147 93.5 L 150 92.5 Q 147.2 90.8 151.5 89 L 155 88 L 156.5 84 L 160 83 L 159.5 81 L 158 81.5 L 162 68.5 L 158 57.5 L 159 55.5 L 154 52.5 L 158 50.5 L 156 50 Q 157.1 47.3 154.5 48 L 154.5 50 L 152.5 51 L 151.5 49 L 153 49.5 L 154 46 L 152 46 Q 153.1 48.7 150.5 48 Q 148.8 44.9 147 46.5 Q 146.3 43.9 149 45 L 149 43 L 144.5 46 Q 142.7 42.9 141 44.5 L 144 42.5 L 139.5 42 L 139.5 44 L 137 43.5 L 137.5 42 L 134 42.5 L 136 43.5 L 128 45 Q 129.1 42.3 126.5 43 L 125.5 41 L 130.5 39 Z M 128 41 L 128 43 L 130 42 L 128 41 Z M 161 56 L 160 58 L 163 59 L 161 56 Z M 162 62 L 161 66 L 162 66 L 162 62 Z M 164 64 Q 161 70 165 69 L 164 64 Z M 165 72 L 164 73 Q 161 72 162 75 L 165 74 L 165 72 Z M 157 85 L 155 89 L 157 89 L 157 85 Z M 153 89 L 152 92 L 154 92 L 155 93 Q 156 88 153 89 Z M 152 92 L 150 94 L 152 94 L 152 92 Z " /><path fill="rgb(1,2,4)" stroke="rgb(1,2,4)" stroke-width="1" opacity="1" d="M 121.5 42 L 121.5 44 L 124.5 43 L 125.5 45 L 123.5 45 L 122 45.5 Q 124.2 46.8 121.5 48 L 119 46.5 L 121 46 L 120.5 44 L 114.5 48 L 116.5 45 L 121.5 42 Z " /><path fill="rgb(1,2,4)" stroke="rgb(1,2,4)" stroke-width="1" opacity="1" d="M 116.5 48 L 119 49.5 L 117.5 50 L 116 49.5 L 117 51.5 L 113 54.5 Q 114.3 58.3 110.5 57 L 109 56.5 L 110.5 59 L 112 58.5 L 110 62.5 L 110 76.5 L 111 78.5 L 109 77.5 Q 110.7 71.7 107 73 L 106 75.5 L 109.5 82 Q 111.3 78.3 113 81.5 L 111 84.5 L 114 85.5 L 111 86.5 L 112 88.5 L 109 86.5 L 106 80.5 L 104 69.5 L 106 69 Q 105 72 108 71 L 106.5 67 L 105 67.5 Q 104.4 62.9 107 61.5 L 106 59.5 L 107.5 60 Q 110.1 60.7 109 58 L 107 57.5 L 111.5 51 L 111 52.5 Q 110.3 54.8 112.5 54 L 116.5 48 Z M 109 64 L 107 66 Q 106 68 109 67 L 109 64 Z " /><path fill="rgb(1,2,4)" stroke="rgb(1,2,4)" stroke-width="1" opacity="1" d="M 28.5 77 L 32 78.5 L 30 79.5 L 33 81.5 L 27.5 82 L 27.5 81 Q 30.1 81.8 29 78.5 L 27.5 79 Q 22.1 77.1 23 80.5 L 24.5 83 L 21 84.5 Q 22.1 88.7 18 87 L 18 90.5 Q 14 92.5 18 94.5 L 16.5 97 L 15 96.5 L 16.5 94 Q 13.5 94.5 15 87.5 L 21.5 79 L 28.5 77 Z M 20 82 Q 17 84 20 85 L 21 83 L 20 82 Z M 17 85 L 17 87 L 19 86 L 17 85 Z " /><path fill="rgb(1,2,4)" stroke="rgb(1,2,4)" stroke-width="1" opacity="1" d="M 33.5 77 L 41 82.5 L 40.5 84 L 42 84.5 L 39 86.5 L 40 88.5 L 39 88.5 L 38 86.5 L 39.5 84 L 37 84 Q 38.1 81.3 35.5 82 L 34.5 80 L 36 79.5 L 33.5 77 Z " /><path fill="rgb(1,2,4)" stroke="rgb(1,2,4)" stroke-width="1" opacity="1" d="M 239.5 77 Q 247 75.5 250 78.5 L 246 80.5 L 248 81 L 247.5 83 L 242 80.5 L 242.5 79 L 239.5 80 L 236.5 79 L 236.5 81 Q 232.1 79.5 233 82.5 L 233 84.5 L 233.5 87 L 235 86.5 Q 232.2 88.2 233 93.5 L 234 96 L 231 97.5 L 230 103.5 L 232.5 102 L 236 102 Q 234.9 99.3 237.5 100 L 235 103.5 L 235.5 105 L 232.5 103 L 228.5 105 L 227.5 102 L 224.5 107 L 222.5 108 Q 221 105.5 219.5 109 L 203.5 115 L 203.5 114 L 206 112.5 L 204 111.5 Q 204.8 113.8 202.5 113 L 200.5 114 Q 199.3 111.8 198 114.5 L 202 115.5 L 182.5 122 L 148.5 128 L 146.5 128 Q 141.1 127.1 139 129.5 L 151 146.5 L 150 148.5 Q 152 146.8 154 150.5 L 160 159.5 L 159.5 161 L 161 161.5 L 160.5 163 L 164 165.5 L 163 166.5 L 168 171.5 L 174 180.5 L 173 183.5 L 173.5 185 L 171.5 184 L 172 185.5 Q 171.3 187.8 173.5 187 L 177 185 L 178 188.5 L 186 198.5 L 186 201 L 188 201.5 L 185 202.5 L 187 203.5 L 185.5 204 L 181 201.5 L 180 197.5 L 181 195.5 L 178.5 197 L 177 195.5 Q 178.5 191.1 175.5 192 L 170 184.5 L 170.5 183 L 167 180.5 L 156 163.5 L 156 161 Q 153.3 162.1 154 159.5 L 153 157 L 151 156.5 L 152.5 156 Q 153.8 158.3 155 155.5 L 154.5 154 L 152.5 154 L 150.5 155 L 149 150.5 Q 151.3 149.3 148.5 148 L 147.5 150 L 139 137.5 L 141 133.5 L 140 133.5 L 138.5 136 L 135.5 132 Q 138.1 132.7 137 130 L 134 131.5 L 132 134.5 L 120.5 153 L 117.5 151 L 117 152.5 L 119 155.5 L 118 158 L 114.5 157 L 114 159.5 L 116 159.5 L 111.5 167 L 109 165.5 L 110 170 Q 107 168.8 108 172.5 L 106 173.5 L 107 169 L 105 169.5 L 105 171.5 L 104 175 L 106 175.5 L 104 176 L 104 178.5 L 99.5 185 L 96.5 183 L 95 185.5 L 99 186.5 L 95.5 191 L 94 191.5 Q 96.5 193 93 194.5 L 87 205 Q 84 203.8 85 207.5 L 83.5 207 L 82 207.5 L 83.5 210 L 80 207.5 L 82 207 Q 84 201 78 203 Q 79.1 205.7 76.5 205 L 70.5 208 L 69 204.5 Q 70.8 200.3 72.5 203 L 74 203.5 L 72.5 204 L 71 203.5 L 70 207 Q 73 208 72 205 L 74.5 205 L 75.5 202 Q 82.3 203.8 84 200.5 L 89.5 192 L 92 191.5 L 90 190.5 L 92.5 187 L 94.5 188 L 95 186 L 93 185.5 L 117 150.5 L 119 145 L 121 145.5 L 120 147.5 L 123 147.5 L 125 144.5 L 123.5 144 Q 122.2 146.3 121 143.5 L 127 133 Q 130.8 131.5 130 134.5 L 131 134.5 Q 129.9 131.2 132.5 132 L 132.5 131 L 129.5 132 L 129 130 Q 132 131.3 131 127.5 L 129.5 128 L 118.5 128 L 118 126.5 L 116.5 127 L 99 125 Q 97.5 121.2 100.5 122 L 100.5 121 L 97 121.5 L 98 124 L 92.5 122 L 90.5 123 L 67 115.5 L 67.5 114 L 64 115 L 63.5 112 L 63 114 L 57 111.5 L 58.5 109 L 54.5 111 L 54.5 110 Q 56.8 110.8 56 108.5 L 53 108.5 Q 53.8 110.8 51.5 110 L 49 109 L 48.5 107 L 46.5 107 L 44 106.5 L 46 105.5 L 43.5 104 L 40.5 105 Q 37.2 106.1 38 103.5 L 37.5 102 L 41 104 L 42 99.5 L 42 95.5 L 41.5 94 L 39 95.5 L 39.5 90 L 40.5 94 L 42 90.5 L 42 88.5 L 42.5 87 L 45 92.5 Q 42.4 95.4 43 101.5 L 45.5 102 L 49 103 L 49.5 105 L 51.5 104 L 64.5 110 L 67.5 110 L 75.5 114 L 89.5 118 L 102.5 120 L 107.5 122 L 118 122 L 118.5 124 L 121.5 123 L 123.5 123 L 126.5 124 L 128.5 123 L 129.5 124 L 139.5 124 L 141.5 123 L 143.5 123 L 163.5 121 L 164.5 124 Q 166.8 124.8 166 122.5 Q 163.8 121.3 166.5 120 L 175.5 119 L 187.5 115 Q 189 117.5 190.5 114 L 193 114 Q 192 117 195 116 L 194 113.5 L 211.5 107 L 215 109 Q 216.1 106.3 213.5 107 L 213.5 106 L 229 100 L 228 90.5 L 230 83.5 L 233.5 80 L 239.5 77 Z M 232 85 Q 229 87 232 88 L 233 88 L 232 85 Z M 230 94 L 231 96 Q 232 93 230 94 Z M 224 103 L 222 106 L 225 106 L 224 103 Z M 47 104 L 47 107 L 49 106 L 47 104 Z M 50 105 L 50 107 L 54 107 L 50 105 Z M 218 105 L 216 109 L 218 109 L 219 107 Q 220 104 218 105 Z M 209 109 L 207 111 L 209 112 L 209 109 Z M 77 115 L 77 117 Q 76 119 79 118 L 79 116 L 77 115 Z M 81 116 L 82 118 L 83 118 L 81 116 Z M 185 117 L 186 119 L 187 119 L 185 117 Z M 91 119 L 89 121 L 91 121 Q 92 123 93 121 L 91 119 Z M 171 121 L 169 123 L 171 123 L 171 121 Z M 174 121 L 174 122 L 177 122 L 174 121 Z M 160 124 L 160 125 L 162 125 L 160 124 Z M 122 125 Q 120 128 123 127 L 122 125 Z M 136 125 L 137 127 Q 138 124 136 125 Z M 143 125 L 141 127 L 143 127 L 143 125 Z M 135 127 L 133 130 L 135 129 L 135 127 Z M 128 135 L 130 138 Q 131 134 128 135 Z M 127 137 L 128 139 Q 129 136 127 137 Z M 145 140 L 145 144 Q 144 147 148 145 L 145 140 Z M 151 151 L 152 153 Q 153 150 151 151 Z M 113 158 L 112 161 L 113 161 L 113 158 Z M 112 161 Q 110 164 113 163 L 112 161 Z M 158 161 L 158 164 Q 157 166 160 165 L 158 161 Z M 162 166 L 161 168 L 163 169 L 162 166 Z M 163 169 L 163 172 L 165 173 Q 166 168 163 169 Z M 169 175 L 168 177 L 166 178 L 169 178 L 169 175 Z M 100 179 L 100 181 L 102 180 L 100 179 Z M 99 180 Q 97 183 100 182 L 99 180 Z M 93 188 L 92 190 L 94 191 L 93 188 Z M 88 200 L 86 203 L 88 202 L 88 200 Z " /><path fill="rgb(1,2,4)" stroke="rgb(1,2,4)" stroke-width="1" opacity="1" d="M 251.5 80 L 255 82.5 L 254 84.5 L 255.5 87 L 257 86.5 L 258 95.5 L 256.5 99 L 255.5 96 L 252.5 97 L 253 95.5 Q 255 85.5 249 83.5 L 252 84.5 L 250 81.5 L 251.5 80 Z M 253 81 Q 251 84 254 83 L 253 81 Z " /><path fill="rgb(1,2,4)" stroke="rgb(1,2,4)" stroke-width="1" opacity="1" d="M 237.5 82 L 239 82.5 L 235.5 85 L 237.5 82 Z " /><path fill="rgb(1,2,4)" stroke="rgb(1,2,4)" stroke-width="1" opacity="1" d="M 20.5 97 L 21 99 L 28.5 103 L 31.5 102 L 35 103 L 36 105.5 L 34.5 105 Q 32.2 108.2 25.5 107 L 24.5 104 L 21.5 102 L 21 103.5 L 21.5 105 Q 19.3 105.8 20 103.5 Q 15.7 101.3 17.5 99 L 16 98.5 L 19 98 L 19.5 102 L 22 100.5 Q 19 99.5 20.5 97 Z M 27 103 L 28 105 Q 29 102 27 103 Z M 31 104 L 31 106 L 33 105 L 31 104 Z " /><path fill="rgb(1,2,4)" stroke="rgb(1,2,4)" stroke-width="1" opacity="1" d="M 251.5 98 L 252.5 100 L 251 99.5 L 252.5 102 L 254.5 101 L 251.5 105 L 248 103.5 L 251.5 98 Z " /><path fill="rgb(1,2,4)" stroke="rgb(1,2,4)" stroke-width="1" opacity="1" d="M 36.5 99 L 37 101 L 35 100.5 L 36.5 99 Z " /><path fill="rgb(1,2,4)" stroke="rgb(1,2,4)" stroke-width="1" opacity="1" d="M 247.5 101 L 247 102.5 L 248 105.5 L 245.5 107 L 243.5 107 Q 239 108 238 105.5 L 239 102 L 246.5 102 L 247.5 101 Z M 242 105 L 242 106 L 244 106 L 242 105 Z " /><path fill="rgb(1,2,4)" stroke="rgb(1,2,4)" stroke-width="1" opacity="1" d="M 23 116 L 28 117 Q 26.2 119.4 27 125.5 L 28 126.5 L 28 137.5 L 27 139.5 L 29 139.5 L 30 149.5 L 33 158 L 30.5 157 L 30 159.5 L 31.5 159 L 34 160.5 L 36 167 L 33 168.5 L 35 169.5 Q 34.3 167.3 36.5 168 L 38.5 171 Q 36.3 170.3 37 172.5 L 39 172.5 L 38 174.5 L 41 175.5 L 39 176 L 40 179.5 L 39.5 181 Q 42.8 182.1 42 179.5 L 41 177.5 L 43 178.5 L 46 183.5 L 43.5 182 L 42 182.5 L 44.5 186 Q 42.3 185.3 43 187.5 L 42 187.5 L 41 185.5 L 41.5 184 L 39 182.5 L 30 164.5 L 28 156.5 L 28.5 155 Q 26.3 155.8 27 153.5 L 27.5 152 Q 24.1 152.9 26 147.5 L 24 143.5 Q 25.5 138 23 136.5 L 23 116 Z M 27 132 L 25 134 Q 24 136 27 135 L 27 132 Z M 27 147 Q 26 150 29 149 Q 30 146 27 147 Z M 35 170 L 36 173 L 37 171 L 35 170 Z " /><path fill="rgb(1,2,4)" stroke="rgb(1,2,4)" stroke-width="1" opacity="1" d="M 247.5 116 L 249 116.5 L 249 133.5 L 245 155.5 L 239 167.5 L 239 169.5 L 236 177 L 233.5 178 L 232 177.5 L 234 180.5 L 233 183 Q 230 181.8 231 185.5 L 228.5 187 L 227 186.5 L 226.5 188 L 224 186.5 L 228 183.5 L 227 181 L 230 180.5 L 229 178.5 L 235 167 L 237 166.5 L 236 163.5 L 243 147.5 L 242 144.5 L 244 138.5 L 245 117 L 247.5 116 Z M 241 156 L 241 158 L 243 157 L 241 156 Z M 234 172 Q 233 176 236 175 L 237 173 L 234 172 Z " /><path fill="rgb(1,2,4)" stroke="rgb(1,2,4)" stroke-width="1" opacity="1" d="M 46.5 185 L 47.5 188 L 54 193.5 L 56.5 198 Q 58.8 197.3 58 199.5 L 55.5 203 L 50 197.5 L 49.5 195 L 48 195.5 L 44 188.5 L 47 186.5 L 46.5 185 Z M 50 190 L 49 191 Q 46 190 47 193 L 50 194 L 50 190 Z M 54 197 L 53 200 L 55 201 L 56 199 L 54 197 Z " /><path fill="rgb(1,2,4)" stroke="rgb(1,2,4)" stroke-width="1" opacity="1" d="M 223.5 188 L 226.5 190 L 228 189.5 L 225 191.5 L 224.5 190 L 223 193.5 Q 225.5 195 222 196.5 L 216.5 203 L 214 201.5 L 213 199.5 L 220 193.5 L 220.5 195 Q 223.8 193.3 220 191.5 L 223.5 188 Z " /><path fill="rgb(1,2,4)" stroke="rgb(1,2,4)" stroke-width="1" opacity="1" d="M 189 202 L 191 202.5 L 190.5 204 L 193 204 L 193.5 202 L 199.5 202 L 206 206.5 L 206 208.5 L 206.5 210 L 208 209.5 Q 210.6 212.4 210 218.5 L 209 222 Q 206.3 223.1 207 220.5 L 205 219.5 L 207 223.5 L 205 224 Q 206.1 221.3 203.5 222 L 204 220.5 L 205.5 216 L 206.5 218 L 207 215 L 204 213.5 L 201.5 209 L 196 206.5 L 198.5 203 Q 193.4 202.4 192 205.5 Q 192.8 207.8 190.5 207 L 188.5 208 L 188.5 207 L 190 206.5 L 189 202 Z M 203 205 L 203 207 L 201 207 L 204 210 Q 206 211 205 209 L 205 207 L 203 205 Z " /><path fill="rgb(1,2,4)" stroke="rgb(1,2,4)" stroke-width="1" opacity="1" d="M 67.5 204 L 67 205.5 L 66 208.5 L 68 209.5 L 68.5 208 L 69 209.5 Q 67 214 65 210.5 L 65.5 209 L 62.5 211 L 63 209.5 L 65 205 L 67.5 204 Z " /><path fill="rgb(1,2,4)" stroke="rgb(1,2,4)" stroke-width="1" opacity="1" d="M 184.5 205 L 184 208.5 L 183 213.5 L 186 221.5 L 184 221.5 L 183.5 224 L 180 222.5 L 179 215.5 L 180 210.5 L 184.5 205 Z " /><path fill="rgb(1,2,4)" stroke="rgb(1,2,4)" stroke-width="1" opacity="1" d="M 88.5 208 Q 91.9 211.6 91 219.5 L 89.5 222 L 87.5 219 L 85.5 222 L 85 220.5 Q 87.2 219.3 86 214.5 L 85 211 Q 87.7 212.1 87 209.5 L 88.5 208 Z M 88 211 Q 85 215 89 214 L 88 211 Z " /><path fill="rgb(1,2,4)" stroke="rgb(1,2,4)" stroke-width="1" opacity="1" d="M 185 209 L 187 209.5 L 185 210.5 L 185 209 Z " /><path fill="rgb(1,2,4)" stroke="rgb(1,2,4)" stroke-width="1" opacity="1" d="M 61.5 213 L 62.5 215 L 66 213 L 65.5 219 L 64.5 216 L 61.5 218 L 61.5 213 Z " /><path fill="rgb(1,2,4)" stroke="rgb(1,2,4)" stroke-width="1" opacity="1" d="M 66.5 220 L 68 222.5 L 66 221.5 L 66.5 220 Z " /><path fill="rgb(1,2,4)" stroke="rgb(1,2,4)" stroke-width="1" opacity="1" d="M 62.5 221 L 65 222.5 L 62 224 L 62.5 221 Z " /><path fill="rgb(1,2,4)" stroke="rgb(1,2,4)" stroke-width="1" opacity="1" d="M 186.5 223 L 187.5 225 L 186.5 223 Z " /><path fill="rgb(1,2,4)" stroke="rgb(1,2,4)" stroke-width="1" opacity="1" d="M 88.5 224 L 88 225.5 L 85.5 229 L 78.5 232 L 74.5 232 L 71.5 231 L 68 229.5 L 70 229 L 69 226.5 Q 70.3 223.8 71.5 226 L 73 226.5 L 71 227 L 71.5 229 Q 73.2 226.2 78.5 227 L 79.5 230 L 84 229 L 84.5 227 Q 85.8 229.3 87 226.5 L 88.5 224 Z " /><path fill="rgb(1,2,4)" stroke="rgb(1,2,4)" stroke-width="1" opacity="1" d="M 200 225 L 202 225.5 L 200 226.5 L 200 225 Z " /><path fill="rgb(1,2,4)" stroke="rgb(1,2,4)" stroke-width="1" opacity="1" d="M 80.5 226 Q 82.8 225.3 82 227.5 L 80.5 226 Z " /><path fill="rgb(1,2,4)" stroke="rgb(1,2,4)" stroke-width="1" opacity="1" d="M 100.5 226 L 104 227 Q 102.9 229.7 105.5 229 L 109.5 228 Q 111.8 231 117 230 L 117.5 233 L 118 231 L 142.5 232 L 143.5 231 L 152.5 231 L 155 232 Q 153.9 228.7 158 230 L 159.5 233 L 160 231.5 Q 157.8 230.2 160.5 229 L 164.5 229 L 172 226 L 174 229.5 L 159.5 235 L 157.5 235 L 150.5 235 L 142.5 237 L 129.5 237 L 128.5 236 L 122 236 L 121.5 234 Q 120.2 236.3 115.5 235 L 113.5 235 L 110 233.5 L 112 230 L 108.5 229 L 108 230.5 Q 110.3 231.7 107.5 233 L 106 232.5 Q 108.3 231.3 105.5 230 L 105 232 L 98 230 L 100.5 226 Z M 166 229 L 165 230 Q 162 229 163 232 L 167 230 L 166 229 Z M 124 233 L 124 235 L 126 234 L 124 233 Z M 133 234 L 132 236 L 134 235 L 133 234 Z M 140 234 L 139 236 L 142 235 L 140 234 Z " /><path fill="rgb(1,2,4)" stroke="rgb(1,2,4)" stroke-width="1" opacity="1" d="M 183.5 226 L 188 229.5 L 186.5 229 L 183.5 226 Z " /><path fill="rgb(1,2,4)" stroke="rgb(1,2,4)" stroke-width="1" opacity="1" d="M 190 226 L 196.5 227 L 198 226.5 Q 197.3 228.8 193.5 228 L 191 227 L 190.5 229 L 190 226 Z " /><path fill="rgb(1,2,4)" stroke="rgb(1,2,4)" stroke-width="1" opacity="1" d="M 204.5 227 L 203.5 229 L 204.5 227 Z " /><path fill="rgb(1,2,4)" stroke="rgb(1,2,4)" stroke-width="1" opacity="1" d="M 198 228 Q 203.2 226.3 202 230 Q 199.4 232.7 192.5 232 L 190 230.5 L 192.5 229 L 198 230 L 198 228 Z " /></svg>